<svg id="_Layer_" data-name="&lt;Layer&gt;" xmlns="http://www.w3.org/2000/svg" viewBox="0 0 2191.79 1172.01"><defs><style>.cls-1{fill:#acc9c5;}.cls-2{opacity:0.5;}.cls-3{fill:#68a1bf;}.cls-4{opacity:0.6;}.cls-5{fill:#fff;}.cls-6{fill:#303642;}.cls-7{fill:#6cc;}.cls-8{fill:#a1e2de;}.cls-9{fill:#52706f;}.cls-10{fill:#331832;}.cls-11{fill:#366f90;}.cls-12{fill:#ef8062;}.cls-13{fill:#8fb3e3;}.cls-14{fill:#5c305d;}.cls-15{fill:#92bcb5;}.cls-16{fill:#daebe8;}.cls-17{fill:#8b1c00;}.cls-18{fill:#ffb27d;}.cls-19{fill:#f4fdff;}.cls-20{opacity:0.3;}.cls-21{fill:#ec865c;}.cls-22{fill:#e9845c;}.cls-23{fill:#020202;}.cls-24{fill:#e1986c;}.cls-25{fill:#080435;}.cls-26{fill:#259596;}.cls-27{fill:#e9633e;}.cls-28{fill:#764678;}.cls-29{font-size:12px;font-family:MyriadPro-Regular, Myriad Pro;}.cls-30{letter-spacing:-0.01em;}</style></defs><path class="cls-1" d="M285.23,624.27c59.58,34.81,120.3-48,164.16,17.87S505,716.73,535,707.76c0,0,32.41-14.06,58.57,2.64,103.2,65.89,104.25,308.78-54.92,296.22-11.49-.9-23.09-7.83-35.43-16-66.92-44.53-60.53-88.13-169.9-61.41S252,799.58,209.56,767.07,121.71,714.62,129.25,645,225.68,589.42,285.23,624.27Z"/><g class="cls-2"><path class="cls-3" d="M598,885l-.68,4.48c-2-.29-201-32.48-464.3-262.8l3-3.42C398.37,852.73,596.05,884.71,598,885Z"/><path class="cls-3" d="M346.34,837.51c6,61.78-10.34,91.56-11,92.8l-4-2.22c.16-.3,16.27-29.94,10.47-90.15Z"/><path class="cls-3" d="M373.54,796c-5.88,25.6-29,49-66.94,67.77a302.3,302.3,0,0,1-55.7,20.72l-1.07-4.4c1-.26,105.76-26.26,119.29-85.11Z"/><path class="cls-3" d="M300.36,739.64c.94,7.09,1.11,11.3,1.12,11.49l-4.54.15c0-.89-3.69-89.48-73.63-149.82l3-3.44C282.63,646.65,296.85,713.19,300.36,739.64Z"/><path class="cls-3" d="M337.85,631.63c-.36,31.57-11.8,53-21.34,65.32-10.38,13.47-20.6,19.38-21,19.63l-2.25-3.94c.39-.23,39.43-23.27,40.08-81.07Z"/></g><g class="cls-4"><path class="cls-5" d="M1601.21,791.59s114.54-482.18,244.21-446.19-148.34,306.1-177.23,447.52Z"/></g><path class="cls-6" d="M1636.63,735.46s435.11-146.15,394-284.07-271.49,174.22-399.4,212Z"/><path class="cls-7" d="M1633.25,695.19c88.81-24.51,176.13-81.46,233.75-124.92,62.45-47.12,104.4-88.95,104.81-89.37l2.61,2.6c-.42.42-42.55,42.43-105.21,89.71-57.87,43.65-145.61,100.87-235,125.52Z"/><ellipse class="cls-8" cx="1077.52" cy="1051.67" rx="1077.52" ry="120.33"/><path class="cls-7" d="M2074.37,901.87c-68.12,11-62.27,113.58-138,90.65s-90.38-22.16-107.81,3.84c0,0-16.06,31.47-46.86,35.23-121.55,14.82-276.88-171.92-146.09-263.48,9.44-6.62,22.79-8.65,37.53-10.18,80-8.22,102.77,29.49,170.15-60.71s145.19,48.27,198.63,46.34,101.15-15.43,139.64,43.11S2142.48,890.87,2074.37,901.87Z"/><g class="cls-2"><path class="cls-3" d="M1667.17,899.7l-2.34-3.9c1.72-1,175.72-102.79,525.42-92.63l-.13,4.54C1841.73,797.58,1668.87,898.67,1667.17,899.7Z"/><path class="cls-3" d="M1891.55,776.23c-43.89-43.88-50.27-77.22-50.52-78.62l4.47-.8c.06.33,6.49,33.45,49.27,76.21Z"/><path class="cls-3" d="M1897,825.54c-11.75-23.49-8.8-56.3,8.53-94.87a302.82,302.82,0,0,1,29.79-51.43l3.63,2.72c-.65.87-64.9,87.54-37.89,141.55Z"/><path class="cls-3" d="M1989.3,822.49c-5.24-4.88-8-8-8.17-8.16l3.4-3c.59.67,59.77,66.68,152.13,68.75l-.11,4.53C2062.14,883,2008.83,840.65,1989.3,822.49Z"/><path class="cls-3" d="M2029.09,929.67c-19.81-24.59-24.58-48.36-25.1-64-.56-17,3.57-28.06,3.75-28.52l4.24,1.61c-.16.42-15.62,43,20.65,88Z"/></g><g class="cls-4"><path class="cls-1" d="M1997.38,629.39c18.6.45,24,6.5,23.81,13.79s-5.85,13.07-24.46,12.62c-33.89-.83-50-14.43-50-14.43S1963,628.55,1997.38,629.39Z"/></g><g class="cls-4"><path class="cls-1" d="M1966.09,583.25c12.48-12.26,20.1-11.94,24.9-7s5,12.51-7.49,24.78c-22.75,22.34-42.44,24.28-42.44,24.28S1943,605.93,1966.09,583.25Z"/></g><path class="cls-7" d="M544.73,242.29c-12.5,11.31-19.81,10.7-24.24,5.8s-4.31-12.23,8.19-23.54c22.77-20.6,41.8-21.68,41.8-21.68S567.83,221.4,544.73,242.29Z"/><path class="cls-7" d="M617.33,629.09l-3.17.37c0-.49-6.15-49.62-37.06-117-28.53-62.2-84.62-153.12-189.89-233.08l1.93-2.54C495,357.21,551.38,448.67,580.06,511.23,611.15,579.07,617.27,628.59,617.33,629.09Z"/><path class="cls-7" d="M498.41,382.66l-3-1.14C536.8,273.31,475.88,165,475.26,163.88l2.77-1.59C478.66,163.39,540.33,273,498.41,382.66Z"/><path class="cls-7" d="M440.86,341.73c-31.73,6.58-59-4.33-59.31-4.46l1.21-2.95c.35.14,35.29,14.08,71.52.17l1.15,3A93.73,93.73,0,0,1,440.86,341.73Z"/><path class="cls-7" d="M381.51,262.36c19.62,11.49,22.75,19.52,19.42,25.22s-11.88,6.91-31.5-4.57c-35.74-20.91-47-41.34-47-41.34S345.25,241.15,381.51,262.36Z"/><path class="cls-7" d="M387.83,325.44c22.17,5,27.58,11.75,26.12,18.19s-9.25,10.17-31.41,5.14c-40.38-9.17-57.25-25.26-57.25-25.26S346.86,316.14,387.83,325.44Z"/><path class="cls-7" d="M462.49,285.35c7.1,15.29,4.35,22.09-1.64,24.87s-13,.49-20.06-14.8c-12.92-27.85-8.32-46.35-8.32-46.35S449.38,257.09,462.49,285.35Z"/><path class="cls-7" d="M482,148.27c9.68,20.57,7.71,29,1.73,31.78s-13.7-1-23.38-21.59C442.72,121,445,97.79,445,97.79S464.11,110.26,482,148.27Z"/><path class="cls-7" d="M702,897.85S582.24,384.28,444.11,422s156.5,326.36,186.63,477Z"/><path class="cls-6" d="M619.69,804.43s-228.12-398.3-355.38-331.1S488.08,705.68,550.08,823.77Z"/><path class="cls-7" d="M580.85,815.59C539.51,733.26,466.64,658.7,412.78,610.66c-58.38-52.08-107.58-85.07-108.07-85.4l2.05-3.06c.49.33,49.9,33.46,108.48,85.72,54.09,48.25,127.3,123.17,168.89,206Z"/><path class="cls-6" d="M1685.77,1017.66,589.66,1005.08a42.84,42.84,0,0,1-42.35-42.83v-669a42.84,42.84,0,0,1,42.18-42.83l1082-16.57a42.84,42.84,0,0,1,43.49,42L1729.09,974A42.84,42.84,0,0,1,1685.77,1017.66Z"/><rect class="cls-9" x="590.83" y="301.23" width="1081.83" height="583.75" rx="22.97"/><polygon class="cls-6" points="573.46 920.72 262.83 1017.68 2002.72 1020.21 1728.01 920.72 573.46 920.72"/><path class="cls-6" d="M247.56,1032v17.67c0,7.9,6.82,14.31,15.24,14.31H1987.86c16,0,29.18-11.79,30-26.79l.11-2c.42-8.17-6.51-15-15.21-15l-1739.89-2.52C254.4,1017.67,247.56,1024.09,247.56,1032Z"/><circle class="cls-10" cx="1111.28" cy="272.36" r="12.57" transform="translate(590.88 1291.34) rotate(-76.72)"/><rect class="cls-6" x="644.87" y="352.6" width="703.17" height="481.41" rx="31.05"/><rect class="cls-11" x="1384.42" y="352.6" width="237.96" height="481.41" rx="18.06"/><rect class="cls-12" x="678.36" y="385.68" width="237.39" height="12.97"/><rect class="cls-13" x="678.36" y="489.6" width="257.45" height="12.97"/><rect class="cls-12" x="678.36" y="604.72" width="175.3" height="12.97"/><rect class="cls-13" x="869.88" y="604.72" width="175.3" height="12.97"/><rect class="cls-14" x="713.73" y="729.36" width="257.45" height="12.97"/><rect class="cls-15" x="797.83" y="760.92" width="257.45" height="12.97"/><rect class="cls-15" x="784.58" y="636.12" width="170.59" height="12.97"/><rect class="cls-15" x="973.54" y="636.12" width="113.34" height="12.97"/><rect class="cls-15" x="862.62" y="663.33" width="146.39" height="12.97"/><rect class="cls-15" x="789.59" y="525.44" width="124.58" height="12.97"/><rect class="cls-13" x="837.44" y="552.71" width="209.31" height="12.97"/><rect class="cls-15" x="933.74" y="525.44" width="99.12" height="12.97"/><rect class="cls-14" x="1420.25" y="385.68" width="91.81" height="6.48"/><rect class="cls-15" x="1420.25" y="424.58" width="59.25" height="6.48"/><rect class="cls-15" x="1489.58" y="424.58" width="69.16" height="6.48"/><rect class="cls-15" x="1530.94" y="385.68" width="55.6" height="6.48"/><rect class="cls-15" x="1420.25" y="405.13" width="132.29" height="6.48"/><rect class="cls-12" x="1420.25" y="473.39" width="91.81" height="6.48"/><rect class="cls-15" x="1420.25" y="512.3" width="59.25" height="6.48"/><rect class="cls-15" x="1489.58" y="512.3" width="69.16" height="6.48"/><rect class="cls-15" x="1530.94" y="473.39" width="55.6" height="6.48"/><rect class="cls-15" x="1420.25" y="492.84" width="132.29" height="6.48"/><rect class="cls-13" x="1420.25" y="561.11" width="91.81" height="6.48"/><rect class="cls-15" x="1420.25" y="600.01" width="59.25" height="6.48"/><rect class="cls-15" x="1489.58" y="600.01" width="69.16" height="6.48"/><rect class="cls-15" x="1530.94" y="561.11" width="55.6" height="6.48"/><rect class="cls-15" x="1420.25" y="580.56" width="132.29" height="6.48"/><rect class="cls-12" x="1420.25" y="647.12" width="91.81" height="6.48"/><rect class="cls-15" x="1420.25" y="686.02" width="59.25" height="6.48"/><rect class="cls-15" x="1489.58" y="686.02" width="69.16" height="6.48"/><rect class="cls-15" x="1530.94" y="647.12" width="55.6" height="6.48"/><rect class="cls-15" x="1420.25" y="666.57" width="132.29" height="6.48"/><rect class="cls-15" x="1420.25" y="725.16" width="91.81" height="6.48"/><rect class="cls-15" x="1420.25" y="764.06" width="59.25" height="6.48"/><rect class="cls-15" x="1489.58" y="764.06" width="69.16" height="6.48"/><rect class="cls-15" x="1530.94" y="725.16" width="55.6" height="6.48"/><rect class="cls-15" x="1420.25" y="744.61" width="132.29" height="6.48"/><rect class="cls-12" x="1050.87" y="525.44" width="100.47" height="12.97"/><rect class="cls-16" x="774.53" y="426.5" width="257.45" height="12.97"/><rect class="cls-13" x="1055.28" y="426.5" width="177.69" height="12.97"/><rect class="cls-16" x="1123.85" y="385.68" width="148.38" height="12.97"/><path class="cls-7" d="M964.1,368.68s-2.56,16.7-9.38,25.22c-4.49,5.61-16.88,16.73-8.07,20.43,7,3,20.59-10.21,25-13.49s11-9.48,9.56-14.76c-3.05-10.95-2-24.71-2-24.71Z"/><path class="cls-7" d="M998.12,355.72s3.41,16.55,0,26.91c-2.26,6.82-10,21.55-.46,22,7.63.33,15.75-16.73,18.74-21.33s7-12.73,3.83-17.17c-6.66-9.2-10.5-22.46-10.5-22.46Z"/><path class="cls-17" d="M993.35,367.42C902,306.48,906.51,253.1,919.17,232.23c14.7-24.25,38-43.42,73.66-52A197.73,197.73,0,0,1,1019,175.9a18.27,18.27,0,0,1,20.1,18.66l-.82,31.09h.07c-15.24-.32-61.48,4.33-73.6,29-2.52,5.12,59,77.34,56.68,90.3C1018.79,359.58,1002.28,373.38,993.35,367.42Z"/><path class="cls-17" d="M957.93,376.55a18.2,18.2,0,0,1-18.26-19.26c1.37-23.32,5.7-63,19.28-93,7.7-17,19.94-32.46,36.39-45.95a203.47,203.47,0,0,1,44.1-27c28.06-12.9,48.27-11.1,48.27-11.1l15.33,22.6c-.2.05,4.3,22.81-28.11,43.11-17.89,11.2-53.84,18-68.63,47-10.56,20.67-14.6,48.06-15.94,67.21a17.55,17.55,0,0,1-17.43,16.31Z"/><path class="cls-18" d="M978.79,100.11s-18.84,29-25.59,72c-4.47,28.43,47.28-4.67,47.28-4.67l2.3-59.4Z"/><path class="cls-19" d="M1073,83.72s-14.35-24.53-47.43-17S979,108,976.62,189.18c0,0,19.86,35.16,110.24,28.3,10-.75,24.36-2.08,19.47-18.32C1097.23,169,1088.42,108.78,1073,83.72Z"/><path class="cls-19" d="M1109.37,90.89l-34,6.39s-59.5,17.6-76.16,17.74-23.55-12-23.55-12a88.09,88.09,0,0,1,41.59-33.57,83.53,83.53,0,0,1,8.32-2.69,61.44,61.44,0,0,1,14.8-2.48C1096.51,63.6,1109.37,90.89,1109.37,90.89Z"/><path class="cls-17" d="M1109.37,90.89c.74,2.68-6.39,7.16-15.93,10s-17.86,3-18.6.29,6.4-7.16,15.93-10S1108.64,88.2,1109.37,90.89Z"/><path class="cls-18" d="M1103.5,166.45c-14.54,22.78-43.33,37.31-73.58,36.36l3.22-24.27c23.46-4.28,41.44-19.54,44.79-32.41,4.21-16.17,2.77-31.93.76-43.76a3.06,3.06,0,0,1,1.15-3c3-2.3,10.77-7,24.66-7.24a2.68,2.68,0,0,1,2.65,2C1113,116.06,1116.46,146.13,1103.5,166.45Z"/><g class="cls-20"><path class="cls-21" d="M1088.19,173.92a4,4,0,0,1-1.54-.31c-2.54-1.09-3.44-4.76-2-8.18a7.64,7.64,0,0,1,4-4.19,4.2,4.2,0,0,1,3.28-.05c2.54,1.09,3.44,4.76,2,8.18h0a7.67,7.67,0,0,1-4,4.19A4.6,4.6,0,0,1,1088.19,173.92Zm2.17-11.92a3.54,3.54,0,0,0-1.32.27,6.56,6.56,0,0,0-3.35,3.59c-1.21,2.86-.58,5.87,1.4,6.72a3.09,3.09,0,0,0,2.42-.06,6.52,6.52,0,0,0,3.35-3.59h0c1.21-2.85.58-5.87-1.4-6.71A2.7,2.7,0,0,0,1090.36,162Z"/></g><path class="cls-18" d="M1033.14,178.54s-21.73-6.91-28.63-3.64-13.26,12.66-8.55,11.54a50.21,50.21,0,0,0,10.34-4.2s-11.71,7.16-8.85,9.18,13-4.32,13-4.32-13.26,9.64-9.94,10.66,13.34-6.37,13.34-6.37-12,9.46-8.09,10.56,9.84-7.88,12.7-5.86,10.17,11.25,16.73,4Z"/><path class="cls-22" d="M1006.48,182.45l-.36-.43c.12-.11,3.16-2.63,5.58-1.94l-.15.54C1009.41,180,1006.51,182.43,1006.48,182.45Z"/><path class="cls-22" d="M1010.62,187.31l-.37-.43a9.91,9.91,0,0,1,6.57-2.31l-.05.56C1013.47,184.86,1010.65,187.29,1010.62,187.31Z"/><path class="cls-22" d="M1014,191.61l-.36-.43c.15-.13,3.73-3.12,6.25-2.16l-.2.52C1017.5,188.71,1014.05,191.58,1014,191.61Z"/><path class="cls-10" d="M1006.45,212.34H936.7a3.4,3.4,0,0,1-3.22-2.3L919,166.75a3.37,3.37,0,0,1,3.22-4.43h67.07a7.1,7.1,0,0,1,6.74,4.82l13.65,40.77A3.37,3.37,0,0,1,1006.45,212.34Z"/><path class="cls-10" d="M1002.07,212.34H932.32a3.38,3.38,0,0,1-3.21-2.3l-14.5-43.29a3.37,3.37,0,0,1,3.22-4.43h67.08a7.09,7.09,0,0,1,6.73,4.82l13.65,40.77A3.37,3.37,0,0,1,1002.07,212.34Z"/><path class="cls-16" d="M953.2,185.92c0-1.65,1.9-2.32,3.55-2.32s4.36,1.81,4.34,4.11c0,2.48-2,2.81-3.61,2.81S953.2,188,953.2,185.92Z"/><path class="cls-10" d="M1027.72,206.23H932.29v6.11h97.42a2.06,2.06,0,0,0,2.06-2.06h0A4,4,0,0,0,1027.72,206.23Z"/><path class="cls-11" d="M997.11,184.21c0-.13-3.45-13-5.67-17s-4.87-4.7-4.9-4.71l.12-.44c.12,0,2.9.84,5.18,4.93s5.57,16.53,5.71,17.06Z"/><path class="cls-11" d="M1007.42,206.45c-2.58,0-3.23-1.14-3.25-1.19L998.72,189l.43-.14,5.43,16.23h0s.59.92,2.84.92Z"/><path class="cls-23" d="M943.13,325.13l-.56,0a257.12,257.12,0,0,1,7.92-44.67c6-21.8,17.53-50.46,38.78-63.18l.29.49C968.47,230.35,957,258.87,951,280.57A256.88,256.88,0,0,0,943.13,325.13Z"/><path class="cls-23" d="M989.69,364.76h-.56a165.41,165.41,0,0,1,11-57.78l.52.22A164.75,164.75,0,0,0,989.69,364.76Z"/><path class="cls-10" d="M1011.66,68.35s7.73-4,8.57-8.57,4-3.5,5.57-4.81-4.36-13-4.36-13l-17.23-4.51L1008,58.63Z"/><path class="cls-18" d="M1046.45,64.29a10,10,0,0,1-8.63-5.14l-5.41-9.88-1.57-2.87-9.24-16.87,3,18.1,1.82,10.86.52,3.1a5,5,0,0,1-3.6,5.63l0,0c-1.14,2.31-2.58,6.94,3.15,8.19,6.73,1.46,16.81-4.69,20-11.14Z"/><path class="cls-24" d="M1032.4,49c0,.1,0,.2,0,.31.12,5.91-5.9,9.25-5.9,9.25l0,0-1.82-10.86c1.85-.89,4.52-1.87,6.2-1.23A2.57,2.57,0,0,1,1032.4,49Z"/><ellipse class="cls-18" cx="1021.05" cy="32.52" rx="17.2" ry="21.22" transform="translate(1.48 96.4) rotate(-5.41)"/><path class="cls-5" d="M1013.12,47.06a37.19,37.19,0,0,0,11.52-3s1,5.72-5.27,6.7C1015.71,51.32,1013.12,47.06,1013.12,47.06Z"/><path class="cls-25" d="M1019.41,32.88a.4.4,0,0,1-.28-.2.39.39,0,0,1,.17-.53,4.24,4.24,0,0,1,5.15.65.39.39,0,0,1,0,.55.45.45,0,0,1-.56,0,6.61,6.61,0,0,0-4.27-.54A.37.37,0,0,1,1019.41,32.88Z"/><path class="cls-25" d="M1023.7,36.6a1.52,1.52,0,0,1-1,1.83c-.67.08-1.31-.6-1.43-1.53a1.51,1.51,0,0,1,1-1.83C1023,35,1023.59,35.67,1023.7,36.6Z"/><path class="cls-25" d="M1012.69,38.38a1.52,1.52,0,0,1-.88,1.89c-.67.13-1.35-.51-1.53-1.43s.22-1.76.89-1.89S1012.52,37.46,1012.69,38.38Z"/><path class="cls-10" d="M1028.08,18.21A30.14,30.14,0,0,0,1008,48.69c0,.78.12,1.59.19,2.41,0,0,9,1.13,10.34,9.77.41,2.71-7,8.09-7.59,7.9-4.3-1.44-16-10.46-15.46-30.61s6.89-35.52,25.13-37.87,17,10.09,17,10.09A17.18,17.18,0,0,1,1028.08,18.21Z"/><path class="cls-10" d="M1025.51,18.49s.33.17.87.51c2.08,1.32,7.28,5.17,8.73,11.5,1.83,8-5.46,13.75-2.74,19.8s7.7-1.5,12.38-.87,7.83-1.82,7.26-11-4.71-30.32-15.54-29.3Z"/><path class="cls-18" d="M1038.15,34.12c-1.76,2-4.46,2.48-6,1s-1.39-4.34.38-6.38,4.45-2.48,6-1S1039.92,32.08,1038.15,34.12Z"/><path class="cls-5" d="M1004.52,59.27a.21.21,0,0,1-.2-.16c-2.51-13.09,1-26.36,5.66-33.7,3.77-6,8-8.62,10.87-9.78a12.94,12.94,0,0,1,5.44-1.1.21.21,0,0,1,.19.22.22.22,0,0,1-.22.19c-.09,0-8.84-.55-15.93,10.7-4.59,7.26-8.09,20.41-5.6,33.39a.2.2,0,0,1-.17.24Z"/><path class="cls-5" d="M1044.21,42.36h-.07a.22.22,0,0,1-.12-.27c3.25-8.89-.21-23.43-4-27.5s-8.67-1.27-8.88-1.15a.2.2,0,0,1-.28-.08.2.2,0,0,1,.08-.28s5.44-3,9.39,1.23,7.39,18.9,4.1,27.92A.2.2,0,0,1,1044.21,42.36Z"/><path class="cls-5" d="M1001.83,43.09a.21.21,0,0,1-.21-.2,85.78,85.78,0,0,1,.73-13.15c1.29-9.21,4-15,8-17.19a18.86,18.86,0,0,1,12.41-2.18,16,16,0,0,1,5.19,1.77.21.21,0,0,1-.21.36,18,18,0,0,0-17.19.42C1001.22,18,1002,42.63,1002,42.87a.2.2,0,0,1-.19.22Z"/><path class="cls-10" d="M1813.79,980.24s-.25,10.12-7.1,13-26.69,5.43-19.28,11.94c4.26,3.73,24.31,1.32,30,1.32s11,2.46,15.18-1.32c4.63-4.17,0-24.92,0-24.92s-4.88,2.54-9.28,2.43C1817,982.51,1813.79,980.24,1813.79,980.24Z"/><path class="cls-10" d="M1892.45,980.24s-.26,10.12-7.1,13-26.7,5.44-19.28,11.94c4.25,3.74,24.3,1.33,30,1.33s11,2.46,15.18-1.33c4.63-4.17,0-24.91,0-24.91s-4.89,2.54-9.28,2.43C1895.61,982.5,1892.45,980.24,1892.45,980.24Z"/><path class="cls-26" d="M1762.89,702.76s-1.27,42.37,12.25,123.65c9.77,58.68,21.29,117.8,26.95,146.15a22.11,22.11,0,0,0,20.65,18l5.44.22c10.92.43,19.79-9,19-20.11l-13.72-191.78-3.38-63.12Z"/><path class="cls-10" d="M1886.59,740.05c-.62,5.15-29.78,4.53-65.48,0s-63.49-12.25-62.87-17.41,29.42-5.78,65.12-1.27S1887.21,734.89,1886.59,740.05Z"/><path class="cls-26" d="M1803.87,733l76.22,244.85A24.58,24.58,0,0,0,1903,995.32l4.58.07c10.82.19,19.09-9.81,17.12-20.7L1883,744.63a7.56,7.56,0,0,0-5.26-5.67C1863.47,734.84,1802.47,722.9,1803.87,733Z"/><path class="cls-5" d="M1874.67,599.08s-10.14-28.53-46.27-27.23-63.4,48.77-70.16,150.8c0,0,59.16-13,128.45,17.29C1886.69,739.94,1890.54,640.67,1874.67,599.08Z"/><path class="cls-5" d="M1900,597.36l-25.59,16.39s-65.79,6.58-83.25,3.41-20.19-16-20.19-16,16.62-22.79,48.23-28.45a88.46,88.46,0,0,1,9.16-.85,89.64,89.64,0,0,1,16,.35C1875.62,575.57,1900,597.36,1900,597.36Z"/><path class="cls-23" d="M1837.94,842.46l-16.39-49.83a47.23,47.23,0,0,0-21.35-26.33l.64-1.12a48.59,48.59,0,0,1,21.93,27.05l16.39,49.83Z"/><path class="cls-17" d="M1803.63,565.49c-.2,0-4.86-1.18-6.25-4.52-.73-1.76-.39-3.79,1-6.05l1.71-2.74c3.62-5.76,4.83-7.71,3.89-12.22l.41-.09c1,4.68-.36,6.82-4,12.54-.52.83-1.08,1.73-1.7,2.74-1.31,2.13-1.63,4-1,5.66,1.31,3.14,5.91,4.26,6,4.27Z"/><path class="cls-17" d="M1804.17,539.92a21.29,21.29,0,0,1-3.2,14.82c-4.8,7.59.43,13.13,6.93,10.21s9,5.38,17.3.79S1804.17,539.92,1804.17,539.92Z"/><path class="cls-18" d="M1842.59,572a10,10,0,0,1-8.14-6L1830,555.6l-1.29-3L1821,534.84l1.32,18.38.8,11,.22,3.15a5,5,0,0,1-4.14,5.29h0c-1.36,2.21-3.24,6.7,2.37,8.49,6.59,2.1,17.25-3.09,21.08-9.24Z"/><path class="cls-10" d="M1830,555.29c0,.1,0,.21,0,.31-.43,5.93-6.77,8.69-6.77,8.69l0,0-.8-11c1.94-.71,4.7-1.44,6.32-.64A2.59,2.59,0,0,1,1830,555.29Z"/><ellipse class="cls-18" cx="1820.2" cy="537.78" rx="17.28" ry="21.31"/><path class="cls-18" d="M1835.17,541c-2,1.87-4.7,2.06-6.11.43s-1-4.47,1-6.34,4.69-2.06,6.11-.43S1837.13,539.12,1835.17,541Z"/><path class="cls-27" d="M1810.9,551.57a37.3,37.3,0,0,0,11.8-1.94s.49,5.82-5.9,6.21C1813.08,556.07,1810.9,551.57,1810.9,551.57Z"/><path class="cls-5" d="M1810.9,551.57s1.43,1.18,4.76,1.17,7-3.11,7-3.11S1815.59,551.59,1810.9,551.57Z"/><path class="cls-25" d="M1818.53,538a.39.39,0,0,1,0-.74,4.24,4.24,0,0,1,5.08,1.13.4.4,0,0,1,0,.56.43.43,0,0,1-.56,0,6.7,6.7,0,0,0-4.22-.94A.43.43,0,0,1,1818.53,538Z"/><path class="cls-25" d="M1821.64,542.3c0,.94-.5,1.72-1.18,1.74s-1.25-.72-1.28-1.66.49-1.72,1.17-1.74S1821.61,541.36,1821.64,542.3Z"/><path class="cls-25" d="M1804.5,540a.38.38,0,0,1-.33-.11.4.4,0,0,1,0-.56,4.27,4.27,0,0,1,5.14-.89.4.4,0,0,1,.19.52c-.08.2-.3.24-.52.2a6.69,6.69,0,0,0-4.26.73A.36.36,0,0,1,1804.5,540Z"/><path class="cls-25" d="M1809,542.84a1.51,1.51,0,0,1-.42,2c-.62.28-1.44-.18-1.82-1a1.51,1.51,0,0,1,.42-2.05C1807.82,541.52,1808.64,542,1809,542.84Z"/><path class="cls-17" d="M1812.87,520.33s.37,7.39,9.6,8.65,15.61,5.17,14.37,11.82-16.13,20.46-5.19,25.81,8.62-4.63,20.48-2.32,14-13.52,5.83-22.72-4.86-33.51-35.49-32.43-19.4,25.51-19.4,25.51S1812.88,528.49,1812.87,520.33Z"/><path class="cls-5" d="M1834.8,568c-2.3-.94-3.72-2.32-4.21-4.12-1.34-5,4.44-12.46,9.53-19.07,1.35-1.74,2.62-3.38,3.74-4.95,3.12-4.35,3.38-9.34.72-13.34-2.93-4.38-8.5-6.23-14.55-4.83s-10.18.13-12.59-1.17a11,11,0,0,1-3.85-3.22l.2-.14c0,.07,4.81,6.92,16.18,4.28,6.15-1.42,11.83.47,14.81,4.94,2.69,4,2.42,9.25-.72,13.63-1.12,1.57-2.39,3.21-3.74,5-5.06,6.56-10.8,14-9.49,18.84.48,1.75,1.81,3,4.07,4Z"/><path class="cls-28" d="M1803.86,553.67c-2.59-1-4.88-3.83-6.1-7.67-2-6.27-.59-13.23,3.12-15.53a5,5,0,0,1,4.49-.45c2.6,1,4.88,3.82,6.1,7.66h0c2,6.25.6,13.23-3.12,15.54a4.94,4.94,0,0,1-2.64.78A5.47,5.47,0,0,1,1803.86,553.67Zm6.88-15.75c-1.15-3.62-3.26-6.3-5.63-7.18a4.31,4.31,0,0,0-3.82.37c-3.44,2.13-4.69,8.71-2.8,14.66,1.15,3.61,3.26,6.3,5.64,7.17a4.29,4.29,0,0,0,3.81-.36c3.44-2.15,4.69-8.72,2.8-14.66Z"/><g class="cls-20"><path class="cls-5" d="M1831.46,533.61c1.39,6.09-.83,12.62-5,14.6s-8.58-1.36-10-7.45.83-12.62,5-14.59S1830.07,527.52,1831.46,533.61Z"/></g><g class="cls-20"><path class="cls-5" d="M1811.64,538.19c1.39,6.11-.46,12.74-4.14,14.81s-7.77-1.22-9.16-7.34.46-12.74,4.13-14.8S1810.25,532.08,1811.64,538.19Z"/></g><path class="cls-28" d="M1820.76,548.29c-2.65-1.29-4.68-4.2-5.56-8-1.51-6.5,1-13.52,5.49-15.66a6.36,6.36,0,0,1,5.61.05c2.65,1.29,4.67,4.2,5.54,8h0c1.52,6.51-.94,13.53-5.48,15.65a6.24,6.24,0,0,1-2.76.65A6.65,6.65,0,0,1,1820.76,548.29Zm.25-23c-4.22,2-6.49,8.63-5.07,14.79.82,3.51,2.75,6.31,5.16,7.48a5.68,5.68,0,0,0,4.93,0c4.23-2,6.5-8.62,5.07-14.79h0c-.81-3.5-2.73-6.28-5.14-7.46a5.72,5.72,0,0,0-2.52-.6A5.88,5.88,0,0,0,1821,525.33Z"/><path class="cls-28" d="M1810.82,540.47a.75.75,0,0,0,.46-.17h0a6.48,6.48,0,0,1,5.15-.91.74.74,0,0,0,.84-.57.7.7,0,0,0-.56-.83,7.76,7.76,0,0,0-6.35,1.2.72.72,0,0,0-.09,1A.7.7,0,0,0,1810.82,540.47Z"/><path class="cls-10" d="M1900.4,597.93c.89,2.58-5.8,7.4-15,10.77s-17.27,4-18.16,1.44,5.8-7.4,15-10.77S1899.52,595.35,1900.4,597.93Z"/><path class="cls-18" d="M1829.78,681.12l7.54-12.75c0-2.55-4.23-7.27-1.81-6.47,9.44,3.13,28.33-3.36,33.3-10.39,6.9-9.76,6.18-24.93,4.25-35.44-1-5.38.79-9,7.29-12.43a44.44,44.44,0,0,1,12.49-4.25c2.77-.48,5.51.63,6.22,3.35a113.54,113.54,0,0,1,3.25,18.6c1.64,18.44-1.92,34.48-10.29,46.39-10.27,14.62-29.41,24-59.51,21.34C1829.77,688.83,1829.82,683.88,1829.78,681.12Z"/><g class="cls-2"><path class="cls-21" d="M1885.29,662.85a3.77,3.77,0,0,1-2.38-.79c-2-1.65-1.81-5.32.5-8.18s5.84-3.87,7.88-2.23a4.18,4.18,0,0,1,1.39,3.75,8.31,8.31,0,0,1-1.88,4.43h0A7.5,7.5,0,0,1,1885.29,662.85Zm3.62-10.74a6.33,6.33,0,0,0-4.53,2.55c-1.84,2.29-2.15,5.23-.68,6.42s4.28.25,6.12-2h0a7,7,0,0,0,1.61-3.74,3,3,0,0,0-.92-2.67A2.52,2.52,0,0,0,1888.91,652.11Z"/></g><path class="cls-26" d="M1857.88,734.46s-71.25-13.61-94.35-7.19l11.08,16.41,41.18,2.33Z"/><path class="cls-17" d="M1820.65,702.76h-60.72a5.58,5.58,0,0,1-5.45-4.37l-18.1-81.33a5.35,5.35,0,0,1,5.23-6.51h57.94a6.31,6.31,0,0,1,6.16,4.93l18.45,82.91A3.59,3.59,0,0,1,1820.65,702.76Z"/><path class="cls-18" d="M1837.71,664s-15.51-15.83-24-16-19.45,6.1-14.2,7.3a55.82,55.82,0,0,0,12.37.9s-15.2,1.38-13.33,4.79,15.07,2.09,15.07,2.09-18,3.08-15.16,5.74,16.43.22,16.43.22-16.59,3.53-13.26,6.54,13.69-3,15.55.41,10.42,16.35,20.54,12.33Z"/><path class="cls-22" d="M1817.9,657.24c-1.83-1.65-5.91-.68-6-.67l-.15-.61c.18,0,4.45-1.06,6.52.82Z"/><path class="cls-22" d="M1820.89,664.31c-3.17-1.89-7.16-.87-7.2-.86l-.16-.6a11,11,0,0,1,7.68.92Z"/><path class="cls-22" d="M1821.64,670.16c-1.79-1.92-6.63-.76-6.68-.75l-.15-.61c.21,0,5.25-1.26,7.29.93Z"/><path class="cls-18" d="M1736.76,651.94s-.84,7.35,5.87,8.07c8.56.92,27.76-8.35,5.72-8.8-.54,0,14.07-1,12.33-4.57s-14.37-1.92-14.37-1.92,15.36-2.34,12.63-5.15-12.67-2.44-12.67-2.44,13-1.35,9.75-4.54-11.7.09-15.6.65c-3.69.53-4.53,3.08-3.76,6.6,0,0-1.27,3.95-.19,6.12.41.83-.29,1.82-.27,2.48A23.27,23.27,0,0,0,1736.76,651.94Z"/><path class="cls-12" d="M1783.19,612.84s-2.28-5.22-2.94-5.76-28-.36-27.85.9,1.26,5,3.78,5.76S1784.23,615.14,1783.19,612.84Z"/><path class="cls-10" d="M1782.27,995.05H506.71a7,7,0,0,1-7-5.86,7.06,7.06,0,0,1,4.44-8.08l124-47.79a37.67,37.67,0,0,1,13.64-2.54H1661.36a32.67,32.67,0,0,1,13.24,2.79l110.29,48.61a6.61,6.61,0,0,1,3.83,7.56A6.52,6.52,0,0,1,1782.27,995.05ZM641.78,931.9a36.62,36.62,0,0,0-13.24,2.47L504.6,982.16a6,6,0,0,0-3.75,6.82,5.81,5.81,0,0,0,5.86,4.94H1782.27a5.35,5.35,0,0,0,5.35-4.41,5.43,5.43,0,0,0-3.18-6.3L1674.15,934.6a31.5,31.5,0,0,0-12.79-2.7Z"/><path class="cls-18" d="M1179.12,578.46l-1.41.66a2.64,2.64,0,0,1-3.51-1.25l-6.45-13.57a2.63,2.63,0,0,1,1.25-3.5l1.4-.67a2.65,2.65,0,0,1,3.51,1.25l6.46,13.57A2.64,2.64,0,0,1,1179.12,578.46Z"/><path class="cls-18" d="M1184.49,574.6l-1.49.71a2.59,2.59,0,0,1-3.44-1.23l-6.87-14.43a2.58,2.58,0,0,1,1.23-3.44l1.49-.71a2.59,2.59,0,0,1,3.45,1.23l6.86,14.43A2.59,2.59,0,0,1,1184.49,574.6Z"/><path class="cls-18" d="M1192.08,587l-1-.23a3.41,3.41,0,0,1-2.54-4.09L1192.7,565c.43-1.82,2.84-4.59,4.66-4.16,3,.72,3.38,4.11,3,5.93l-4.14,17.74A3.42,3.42,0,0,1,1192.08,587Z"/><path class="cls-18" d="M1190.48,572.32l-.55.26a3.23,3.23,0,0,1-4.29-1.52l-9.72-20.44c-.76-1.6-1.86-5.36,1.11-6.44,2.18-.78,4.31,3,5.53,5.45C1185,554.52,1192,568,1192,568A3.22,3.22,0,0,1,1190.48,572.32Z"/><path class="cls-18" d="M1179.26,592.78s-13.93-12.22-14.71-23.61c-.27-3.95,17.32-12.26,20.79-9.5s10.88,19.44,10.88,19.44Z"/><path class="cls-18" d="M1173.22,580.52l-1.45.69c-1.29.61-.23,3.13-1.11,2a43.38,43.38,0,0,1-7.88-14.85c-.61-1.29,0-3.64,1.25-4.25l1.29-.38c1.29-.61,3,.43,3.62,1.72l5.52,11.6A2.61,2.61,0,0,1,1173.22,580.52Z"/><path class="cls-10" d="M1277.61,959.38s-.5,9.44-7,11.93-25.1,4.4-18.33,10.66c3.88,3.59,22.69,1.84,28,2s10.2,2.58,14.23-.85c4.43-3.78.63-23.26.63-23.26s-4.63,2.25-8.74,2C1280.5,961.57,1277.61,959.38,1277.61,959.38Z"/><path class="cls-26" d="M1231.14,721.37c1.24,19.6,3.58,45,7.9,76.16,8.25,59.31,18.26,119.13,23.19,147.81A22.28,22.28,0,0,0,1282.57,964l5.47.37c11,.74,19.35-3.33,19.35-20.79l-.53-159.39-8.55-63.66S1229.11,689.21,1231.14,721.37Z"/><path class="cls-10" d="M1338.27,961s-.5,9.44-7,11.93-25.1,4.4-18.33,10.66c3.88,3.59,22.69,1.85,28,2s10.2,2.58,14.23-.85c4.43-3.78.63-23.26.63-23.26s-4.63,2.25-8.74,2C1341.16,963.2,1338.27,961,1338.27,961Z"/><path class="cls-26" d="M1290.71,674.4s-2.43,42.6,9,124.76C1308,858.48,1318,918.29,1322.89,947a22.3,22.3,0,0,0,20.34,18.64l5.47.36a18.7,18.7,0,0,0,19.7-19.72l-8.61-193.36-1.69-63.62Z"/><path class="cls-10" d="M1307.07,852.25c0-2.92-.8-71.72,2.73-84.29s19.42-23.24,20.1-23.68l.45.69c-.16.1-16.28,10.86-19.75,23.22s-2.71,83.34-2.71,84Z"/><path class="cls-18" d="M1302.63,543.43l-4.27-12.75-1.24-3.71-7.29-21.82-1,21.7-.57,13-.19,4.13c-.12,2.79-2,3.38-4.2,5.82-.91,1-6.72,7-.12,9.66,8.21,3.36,23.56-1.73,29.4-8.4C1313.14,551.08,1304,547.55,1302.63,543.43Z"/><ellipse class="cls-18" cx="1290.94" cy="513.29" rx="23.43" ry="20.88" transform="translate(512.23 1663.77) rotate(-77.59)"/><path class="cls-10" d="M1279.16,505.15c-12,.41-17.76-6-17.9-11.91-.18-7.59,5-14.32,11-11.5s3.43-4.1,9.21-4.83c10.8-1.38,12.82,5.74,21.66,6.09,11.65.45,24.94,18.45,15.17,31.59C1318.29,514.59,1288.61,504.82,1279.16,505.15Z"/><path class="cls-10" d="M1268.51,497.49s12.78,11.4,11.1,17.82-1.26,8.93,6.2,12.36.87,9,10.82,9.38,22.14-10.5,22.13-28.41a25.84,25.84,0,0,0-6.19-16.52Z"/><path class="cls-18" d="M1273.15,515a4.54,4.54,0,0,1,5.95-1.28,3.82,3.82,0,0,1,.7,5.62,4.53,4.53,0,0,1-5.94,1.28A3.82,3.82,0,0,1,1273.15,515Z"/><path class="cls-10" d="M1323.09,519.53a.29.29,0,0,1-.29-.23,6.85,6.85,0,0,0-3.09-3.81.29.29,0,0,1-.12-.4.3.3,0,0,1,.4-.12,7.31,7.31,0,0,1,3.39,4.19.3.3,0,0,1-.22.36Z"/><path class="cls-10" d="M1319.85,514.14a.3.3,0,0,1,0-.59s3.27-.22,3.73-2.53a.3.3,0,0,1,.35-.24.3.3,0,0,1,.23.35c-.55,2.77-4.13,3-4.28,3Z"/><path class="cls-10" d="M1274.06,481.3a2.47,2.47,0,0,1-.64-.09A8.89,8.89,0,0,1,1271,480a5,5,0,0,0-5-.85.29.29,0,0,1-.37-.2.3.3,0,0,1,.19-.37,5.65,5.65,0,0,1,5.48.92,8.16,8.16,0,0,0,2.29,1.13,1.47,1.47,0,0,0,1.3-.18c1.3-.9,1.61-3.72,1.61-3.75a.3.3,0,0,1,.33-.26.29.29,0,0,1,.26.32c0,.13-.34,3.13-1.87,4.18A2,2,0,0,1,1274.06,481.3Z"/><path class="cls-10" d="M1302.2,482.06a12.85,12.85,0,0,1-7.66-3,.3.3,0,1,1,.39-.45s4,3.42,8.54,2.74a.28.28,0,0,1,.34.25.29.29,0,0,1-.25.33A9,9,0,0,1,1302.2,482.06Z"/><path class="cls-10" d="M1276.35,521.48a2.74,2.74,0,0,1-.82-.1.14.14,0,0,1-.09-.18.15.15,0,0,1,.18-.09c.1,0,2.7.8,4.54-2.59a.15.15,0,0,1,.19-.06.15.15,0,0,1,.06.2C1279.1,521.08,1277.36,521.48,1276.35,521.48Z"/><path class="cls-10" d="M1231.14,721.37s86.77-4.73,127.95,5.18l.61-11.72L1302,697.77l-46.61,1.14L1241,702l-10.11,15.58Z"/><path class="cls-17" d="M1351.39,578.66s-7.64-32.78-54.36-32.78c-81.41,0-58.57,66.28-66.11,171.66,0,0,52.49-11.36,128.44,3.75,0,0,7.4-57.06-2.16-105.31C1354.68,603.25,1355.14,589.73,1351.39,578.66Z"/><path class="cls-17" d="M1287.66,545.88s-26.12.38-45.54,18.68-44.43,43.49-49.74,58c-6.53,17.85,5.5,35.77,20.77,36.15s29-10.67,29-10.67Z"/><path class="cls-17" d="M1403.32,642.31c-7.64-56.41-72-88.27-72-88.27l-13.73,70.76,26.81,8.49a21.35,21.35,0,0,1,11.07,32.65c-10.67,15-16.91,35.22-5.89,31.51C1368.42,691.1,1407.14,667.08,1403.32,642.31Z"/><path class="cls-10" d="M1361.78,695.59l-.57,0c2.26-41.34-5.07-83.65-5.14-84.07l.56-.1C1356.71,611.81,1364.05,654.19,1361.78,695.59Z"/><path class="cls-10" d="M1233.07,654l-.3-.49c15.35-9,35.32-32.84,35.52-33.08l.44.37C1268.53,621,1248.5,644.89,1233.07,654Z"/><path class="cls-17" d="M1226.15,596.2s-19.73-20.54-26.63-21.93-46.66,9.54-3,75.65Z"/><path class="cls-18" d="M670.15,795.39c2.56,4.56,28.27,44.38,22.89,83.33l-28-10.12-12.79-52.5Z"/><path class="cls-7" d="M558.42,779.07s17.19-30.84,59-22.31,64.68,68.42,53.33,187.06c0,0-66.48-26.43-152.92-5.13C517.87,938.69,532.1,823.8,558.42,779.07Z"/><path class="cls-7" d="M526.5,766.61,555.92,796s75.41,20.38,96.35,20.13,29.19-15.55,29.19-15.55-17.68-28-53.45-40.66a103.59,103.59,0,0,0-29.24-5.84C561.75,751.85,526.5,766.61,526.5,766.61Z"/><path class="cls-10" d="M526.5,766.61c-4.7,5.11,2.55,10.69,10.67,18.8s16.52,12.84,18.74,10.56-2.55-10.69-10.67-18.8S528.66,764.26,526.5,766.61Z"/><path class="cls-18" d="M552,796.09s.44-5.86-6.93-13.35a44.75,44.75,0,0,0-13.83-9.09,4.3,4.3,0,0,0-5.72,2.41l-2.36,6.08,11,7.07Z"/><path class="cls-17" d="M604,904.86s-90.75-49.18-123.27,4.47C456.63,949,492.82,986,627.07,982.27c0,0,13.27-6.22,10-38.45C635.83,931,604,904.86,604,904.86Z"/><path class="cls-17" d="M604,904.86s120.86-49.51,144.78-18.56c27.48,35.57,1.12,96-126.27,74.38L607,943.82Z"/><path class="cls-23" d="M627.22,982.47l-.29-.41c14.09-10.06,10.3-35.88,10-38.06l-91.6-33.34.17-.47,91.89,33.44,0,.14C637.41,944.05,642.13,971.84,627.22,982.47Z"/><path class="cls-10" d="M637.88,952.68s22.28.91,32.74,6,4.87,17.66-16.37,17.32-19.63-3.49-19.63-3.49S638.65,961.55,637.88,952.68Z"/><path class="cls-18" d="M609.37,907.22c7.38,0,13.44-1.87,18.35-5.57,9.28-7,11-18.16,9.66-25.59l-8.88-5.16c-.44-2.44-17.58,6.61-17.55,6.6s-8.17,2.37-36.25-12c-19.55-10-29.4-24.16-30.12-43.34-.54-14.45,5.9-22.57,7.42-26.09.21-.47-9.44-10.14-9.17-11.12l-7.23-3.68c.23-.83-7-3.66-6.85-3.9l-5.59,4.75a93.2,93.2,0,0,0-7.85,41.16c.78,20.94,9.43,49.85,46.16,68.62C581.5,902.15,597.22,907.22,609.37,907.22Z"/><path class="cls-28" d="M615.33,908.39h78.31a3.82,3.82,0,0,0,3.62-2.58l16.27-48.61a3.78,3.78,0,0,0-3.61-5H634.61a8,8,0,0,0-7.57,5.42l-15.32,45.77A3.78,3.78,0,0,0,615.33,908.39Z"/><path class="cls-28" d="M620.24,908.39h78.32a3.8,3.8,0,0,0,3.61-2.58l16.28-48.61a3.78,3.78,0,0,0-3.62-5H639.52a8,8,0,0,0-7.56,5.42l-15.33,45.77A3.78,3.78,0,0,0,620.24,908.39Z"/><path class="cls-16" d="M675.12,878.72c0-1.84-2.13-2.6-4-2.6s-4.89,2-4.87,4.61c0,2.79,2.2,3.16,4.06,3.16S675.12,881.07,675.12,878.72Z"/><path class="cls-28" d="M591.45,901.53H698.6v6.86H589.21a2.3,2.3,0,0,1-2.31-2.31h0A4.55,4.55,0,0,1,591.45,901.53Z"/><path class="cls-10" d="M625.57,877.13l-.1,0a.39.39,0,0,1-.28-.48c.16-.59,3.9-14.63,6.43-19.18s5.76-5.56,5.89-5.6a.39.39,0,0,1,.48.27.4.4,0,0,1-.27.49s-3,.89-5.42,5.23-6.32,18.85-6.35,19A.41.41,0,0,1,625.57,877.13Z"/><path class="cls-10" d="M614.24,901.92a.4.4,0,0,1,0-.79c2.46,0,3.08-1,3.09-1L623.4,882a.39.39,0,1,1,.74.25L618,900.45C618,900.56,617.22,901.92,614.24,901.92Z"/><path class="cls-21" d="M539,865.08a3.37,3.37,0,0,1-.87-.12c-1.68-.45-3.54-2.14-4.83-4.41-2-3.47-2-7.06-.12-8.18a2.71,2.71,0,0,1,2.13-.2c1.69.45,3.54,2.14,4.83,4.4,2,3.47,2,7.07.13,8.18A2.48,2.48,0,0,1,539,865.08Zm-4.56-12a1.55,1.55,0,0,0-.75.19c-1.38.81-1.15,3.92.49,6.8,1.15,2,2.8,3.55,4.22,3.93a1.7,1.7,0,0,0,1.35-.11c1.38-.8,1.16-3.91-.49-6.79-1.15-2-2.8-3.55-4.21-3.93A2.31,2.31,0,0,0,534.4,853.06Z"/><path class="cls-18" d="M598.13,754c5.14-.15,9-.68,12-4.16L619.3,739l2.66-3.13,15.68-18.45L629.41,739,624.46,752l-1.56,4.1c-1.07,2.78.34,4.08,1.33,7.33.4,1.32,3.1,9.43-3.94,9.48-8.77.07-19.86-10.13-22.3-18.93A.7.7,0,0,0,598.13,754Z"/><path class="cls-10" d="M616.75,732.12s-17.27-16.59-7.31-30.59S621.89,724,621.89,724l-2.78,8.43Z"/><path class="cls-10" d="M619.38,738.67c0,.12-.06.25-.08.37-1.61,7.28,5.1,13,5.1,13l.06,0L629.41,739c-2.11-1.57-5.2-3.48-7.45-3.12C620.78,736.09,619.84,736.89,619.38,738.67Z"/><ellipse class="cls-18" cx="636.65" cy="723.75" rx="24.51" ry="20.16" transform="translate(-235.04 1135.23) rotate(-73.93)"/><path class="cls-10" d="M621,716s5.5,4,10.11.62S639,710,649.3,715.21s21.61,2.86,23.7-3-2.83-10.32-9.31-10,1.37-3.27-3.14-9.41-15.94.18-21.61-2.86-25.86-5.7-29.5,11.61Z"/><path class="cls-18" d="M616.7,719.44a4.14,4.14,0,0,0,5.68,1.54,4.23,4.23,0,0,0,.87-5.87,4.15,4.15,0,0,0-5.67-1.54A4.24,4.24,0,0,0,616.7,719.44Z"/><path class="cls-5" d="M661.6,710.2c-4.33,0-10.22-5.29-10.49-5.54l.51-.56c.07.07,6.93,6.24,10.9,5.23,1.53-.38,2.39-1.11,2.25-1.88s-1.21-1.43-2.74-1.28a8.59,8.59,0,0,1-5.26-.85l.41-.64a8,8,0,0,0,4.77.73c2.06-.21,3.38.83,3.57,1.91s-.49,2.16-2.81,2.75A4.5,4.5,0,0,1,661.6,710.2Z"/><path class="cls-5" d="M643.78,695.71a11.86,11.86,0,0,1-4.32-.76,47.08,47.08,0,0,1-4.87-2.33c-2.92-1.55-5.46-2.88-8.2-2.34l-.14-.75c3-.58,5.64.81,8.7,2.42a44.28,44.28,0,0,0,4.78,2.29c5.25,2.06,11.39-.91,11.77-1.23l.55.51A16.44,16.44,0,0,1,643.78,695.71Z"/><path class="cls-5" d="M614.68,700.63a1.06,1.06,0,0,1-.31,0c-.25-.1-.64-.4-.39-1.32l0-.12c.42-.6,2.61-3.58,4.12-2.63.2.13.6.5.2,1.3C617.85,698.82,615.84,700.63,614.68,700.63Zm0-1.11c-.07.29,0,.37,0,.37a4.58,4.58,0,0,0,2.33-1.52c.74-.75.8-1.15.77-1.21C617.09,696.73,615.55,698.3,614.69,699.52Z"/><path class="cls-25" d="M640.51,724.39a.38.38,0,0,0,.3-.2.42.42,0,0,0-.15-.56,4.38,4.38,0,0,0-5.4.5.42.42,0,0,0-.06.58.45.45,0,0,0,.58.06,6.89,6.89,0,0,1,4.48-.42A.37.37,0,0,0,640.51,724.39Z"/><path class="cls-25" d="M636.74,728.48c-.15,1,.29,1.85,1,2s1.39-.58,1.54-1.55-.29-1.86-1-2S636.89,727.5,636.74,728.48Z"/><path class="cls-25" d="M654.78,729.57a.32.32,0,0,0,.29-.1.5.5,0,0,0,.08-.57,2.86,2.86,0,0,0-4-1.3.49.49,0,0,0-.24.52.3.3,0,0,0,.38.25,4.24,4.24,0,0,1,3.32,1.07A.28.28,0,0,0,654.78,729.57Z"/><path class="cls-25" d="M649.66,731.87a1.6,1.6,0,0,0,.17,2.19c.61.38,1.51,0,2-.84a1.63,1.63,0,0,0-.17-2.2A1.59,1.59,0,0,0,649.66,731.87Z"/><path class="cls-23" d="M638,742.2a9.15,9.15,0,0,1-8.37-4.61.28.28,0,0,1,.11-.39.29.29,0,0,1,.39.1c3.27,5.78,9.92,4.16,10.2,4.09a.29.29,0,0,1,.35.21.29.29,0,0,1-.21.35A12,12,0,0,1,638,742.2Z"/><path class="cls-23" d="M629,738.6l-.09,0a.28.28,0,0,1-.18-.36,3.83,3.83,0,0,1,1.88-2,.33.33,0,0,1,.42.08.26.26,0,0,1,0,.37l-.09,0a3.25,3.25,0,0,0-1.62,1.64A.29.29,0,0,1,629,738.6Z"/><rect class="cls-10" x="662.49" y="799.24" width="1.26" height="14.79" transform="translate(-218.86 247.62) rotate(-18.21)"/><path class="cls-5" d="M652,745.76a5.39,5.39,0,0,1-3.88-1.61c-3.45-3.42-3.28-11.32.36-17.63,2.24-3.89,5.39-6.45,8.42-6.85a5.44,5.44,0,0,1,4.71,1.56c3.44,3.41,3.28,11.32-.36,17.63-2.25,3.88-5.39,6.44-8.42,6.85A5.87,5.87,0,0,1,652,745.76Zm5.72-25.3a5.78,5.78,0,0,0-.71,0c-2.77.37-5.68,2.78-7.79,6.43h0c-3.47,6-3.69,13.44-.5,16.6a4.59,4.59,0,0,0,4,1.32c2.77-.37,5.69-2.77,7.8-6.43,3.46-6,3.69-13.44.5-16.6A4.58,4.58,0,0,0,657.68,720.46Z"/><g class="cls-20"><path class="cls-5" d="M627.92,717.24c-2.95,6.28-2.14,13.91,1.82,17.06s9.56.6,12.51-5.67,2.14-13.91-1.82-17.06S630.87,711,627.92,717.24Z"/></g><g class="cls-20"><path class="cls-5" d="M648.15,727c-3,6.3-2.56,14,.89,17.09s8.66.56,11.62-5.75,2.56-14-.89-17.08S651.11,720.72,648.15,727Z"/></g><path class="cls-5" d="M634.17,736a6.84,6.84,0,0,1-4.29-1.52c-4.38-3.41-5.34-11.64-2.15-18.33,1.85-3.91,4.74-6.58,7.91-7.33a6.9,6.9,0,0,1,6,1.32c4.37,3.41,5.34,11.63,2.15,18.33-1.86,3.91-4.74,6.58-7.92,7.33A7.27,7.27,0,0,1,634.17,736Zm3.18-26.53a6.62,6.62,0,0,0-1.51.18c-2.88.68-5.62,3.25-7.34,6.86h0c-3,6.36-2.17,14.12,1.9,17.3a6.09,6.09,0,0,0,5.3,1.16c2.88-.68,5.62-3.25,7.34-6.86,3-6.36,2.17-14.12-1.9-17.3A6.05,6.05,0,0,0,637.35,709.45Z"/><path class="cls-5" d="M648.65,729.71a.81.81,0,0,1-.63-.31,7,7,0,0,0-5.31-2.23.8.8,0,0,1-.78-.82.81.81,0,0,1,.82-.77,8.53,8.53,0,0,1,6.53,2.85.8.8,0,0,1-.63,1.28Z"/><rect class="cls-23" x="607.79" y="922.35" width="55.22" height="0.51" transform="translate(-309.57 320.96) rotate(-22.96)"/><path class="cls-18" d="M230.32,737.83s18.76-.87,21.75-29.66c3.07-29.59-30.87,0-30.87,0Z"/><path class="cls-18" d="M211.18,643.43c1.14.45,20.13,5.6,28.54,34.25s-19.82,6.06-19.82,6.06Z"/><path class="cls-10" d="M186.16,1038.09s.26,10.29,7.23,13.2,27.15,5.52,19.6,12.14c-4.32,3.8-24.72,1.34-30.48,1.34s-11.16,2.51-15.44-1.34c-4.71-4.24,0-25.34,0-25.34s5,2.59,9.44,2.47C183,1040.39,186.16,1038.09,186.16,1038.09Z"/><path class="cls-10" d="M106.16,1038.09s.26,10.29,7.22,13.19,27.16,5.53,19.61,12.15c-4.32,3.8-24.72,1.34-30.48,1.34s-11.16,2.51-15.44-1.34c-4.71-4.24,0-25.35,0-25.35s5,2.59,9.44,2.48C103,1040.39,106.16,1038.09,106.16,1038.09Z"/><path class="cls-26" d="M237.94,755.86s1.29,43.1-12.47,125.77c-9.93,59.68-21.65,119.81-27.4,148.65a22.49,22.49,0,0,1-21,18.26l-5.53.22c-11.11.45-20.13-9.1-19.32-20.45l13.95-195.06,3.44-64.2Z"/><path class="cls-10" d="M112.12,793.79c.63,5.24,30.29,4.61,66.6,0s64.58-12.46,63.94-17.71-29.92-5.88-66.23-1.28S111.49,788.54,112.12,793.79Z"/><path class="cls-26" d="M196.25,786.64l-77.52,249a25,25,0,0,1-23.32,17.75l-4.66.08c-11,.19-19.42-10-17.41-21l42.41-234a7.68,7.68,0,0,1,5.35-5.76C135.64,788.49,197.68,776.34,196.25,786.64Z"/><path class="cls-5" d="M124.24,650.41s10.32-29,47.06-27.7,64.49,49.61,71.36,153.38c0,0-60.16-13.19-130.65,17.59C112,793.68,108.11,692.71,124.24,650.41Z"/><path class="cls-5" d="M98.44,648.66l26,16.67s66.91,6.69,84.68,3.47,20.52-16.29,20.52-16.29-16.9-23.17-49-28.93a91.28,91.28,0,0,0-9.32-.87,91.72,91.72,0,0,0-16.25.36C123.28,626.5,98.44,648.66,98.44,648.66Z"/><path class="cls-23" d="M161.6,898l-1.24-.41L177,846.86a49.37,49.37,0,0,1,22.31-27.51l.65,1.13a48.06,48.06,0,0,0-21.72,26.79Z"/><path class="cls-10" d="M98.07,649.24c-.9,2.62,5.9,7.53,15.2,11s17.58,4.08,18.48,1.46-5.9-7.52-15.21-10.95S99,646.62,98.07,649.24Z"/><path class="cls-18" d="M161.92,739.91l.31-19a4.91,4.91,0,0,0-4.55-5c-13.19-.94-22.42-5-27.48-12.18-7-9.93-6.28-25.36-4.32-36,1-5.48-.81-9.14-7.42-12.65a45.16,45.16,0,0,0-12.7-4.32c-2.81-.48-5.6.65-6.33,3.41a116.21,116.21,0,0,0-3.3,18.92c-1.66,18.76,2,35.07,10.46,47.19,10.45,14.86,27.28,23.09,50.09,24.48A4.93,4.93,0,0,0,161.92,739.91Z"/><g class="cls-2"><path class="cls-21" d="M113.44,715.27a7.62,7.62,0,0,1-5.6-3.07,8.51,8.51,0,0,1-1.92-4.51,4,4,0,0,1,5.44-4.38,8.95,8.95,0,0,1,5.91,7.34,4.27,4.27,0,0,1-1.41,3.81A3.78,3.78,0,0,1,113.44,715.27Zm-3.66-10.93a2.58,2.58,0,0,0-1.64.53,3,3,0,0,0-1,2.72,7.24,7.24,0,0,0,1.64,3.81c1.88,2.33,4.73,3.28,6.23,2.07a3,3,0,0,0,.94-2.72,7.72,7.72,0,0,0-5-6.22A4.16,4.16,0,0,0,109.78,704.34Z"/></g><path class="cls-26" d="M141.32,788.1s72.47-13.84,96-7.31L226,797.49l-41.89,2.37Z"/><path class="cls-10" d="M170.58,717.74l62.47,0a3,3,0,0,0,2.88-2.06l13-38.77a3,3,0,0,0-2.88-4L186,673a6.34,6.34,0,0,0-6,4.32L167.7,713.78A3,3,0,0,0,170.58,717.74Z"/><path class="cls-10" d="M174.5,717.75l62.47,0a3,3,0,0,0,2.88-2.06l13-38.77a3,3,0,0,0-2.88-4l-60.08,0a6.35,6.35,0,0,0-6,4.32l-12.24,36.51A3,3,0,0,0,174.5,717.75Z"/><path class="cls-16" d="M218.28,694.09c0-1.47-1.7-2.07-3.18-2.07s-3.9,1.61-3.89,3.68,1.76,2.51,3.24,2.51S218.28,696,218.28,694.09Z"/><path class="cls-11" d="M179,692.55l-.39-.11c.13-.47,3.11-11.65,5.12-15.27s4.54-4.39,4.64-4.41l.11.39s-2.44.71-4.39,4.22S179,692.43,179,692.55Z"/><rect class="cls-11" x="167.22" y="703.83" width="15.33" height="0.41" transform="translate(-548.15 645.11) rotate(-71.39)"/><path class="cls-18" d="M252.45,703.9s1,8.14-5.85,8.91c-8.77,1-20.8-6.87-15.25-7.58a60.51,60.51,0,0,1,12.15.3s-18.36-2.61-16.65-6.52,17.47-1.43,17.47-1.43-17.69-4.35-15-7.44,17.06-.95,17.06-.95-17.48-3.25-14.22-6.76,12,.13,16.05.77c3.8.61,4.73,3.43,4,7.32,0,0,1.4,4.37.34,6.77-.41.92.34,2,.34,2.74A28.09,28.09,0,0,1,252.45,703.9Z"/><path class="cls-18" d="M152.84,714.72s4.63-14,12.56-17.45,20.65-1.82,16.19,1.35a57.28,57.28,0,0,1-11.29,5.65s14.82-4.61,14.4-.67-13.36,7.81-13.36,7.81,18.08-4.07,16.48-.49-15.36,6.59-15.36,6.59,17-3.12,15,1-14,2.48-14.47,6.42-3.44,19.41-14.52,19.57Z"/><path class="cls-22" d="M165,707.52l-.57-.27c1.22-2.57,5.62-3.27,5.81-3.3l.1.63S166.09,705.26,165,707.52Z"/><path class="cls-22" d="M164.94,715.33l-.51-.39c2.41-3.21,6.69-3.82,6.87-3.85l.09.64S167.19,712.33,164.94,715.33Z"/><path class="cls-22" d="M166.51,721.12l-.6-.23c1.07-2.84,6.28-3.67,6.5-3.7l.09.63C172.45,717.83,167.44,718.62,166.51,721.12Z"/><path class="cls-22" d="M245.59,713.26a27.25,27.25,0,0,1-5.79-.78l.15-.61c1.88.47,7.13,1.39,8.73.06l.41.49A5.72,5.72,0,0,1,245.59,713.26Z"/><path class="cls-17" d="M192,569.73s5-13.66-7.16-17.92-11.58,5.82-14.42,7.67,1.18,10.32,6.94,12.7S192,569.73,192,569.73Z"/><path class="cls-18" d="M172.66,632.43c5.84-1.89,2.43-9.47,2.43-9.47-2.64-.46-4.57-2.21-4.4-4.88l.23-3.29.11-1.62.34-5.21.31-4.67L173,584.13l-7.86,18.53-1.33,3.15-4.61,10.86a12.06,12.06,0,0,1-8.33,7C153.45,626.56,165.81,634.65,172.66,632.43Z"/><path class="cls-10" d="M163.77,605.81s2.34,6.06,7.26,7.36l.34-5.21C168.34,606.88,163.77,605.81,163.77,605.81Z"/><path class="cls-17" d="M151.29,581.09s.76,3.14-1,9.6c-2.6,9.44,8.2,13.31,10.94,10.61.34-.34-.2-16.37-.2-16.37l-3.45-2Z"/><ellipse class="cls-18" cx="173.85" cy="587.19" rx="18" ry="22.21" transform="matrix(1, -0.01, 0.01, 1, -3.15, 0.94)"/><path class="cls-17" d="M180.88,570.11c-.49.68,2.4,12.09-18.75,14.93s-8.57-22.9,7-23.57c22.54-1,25.91,14.19,23.77,19.65S180.88,570.11,180.88,570.11Z"/><path class="cls-17" d="M164.45,581.39s-8.6,9.16-5.55,18.47c0,0-5.05-5.45-5.17-7.5s1.17-9.44,1.17-9.44Z"/><path class="cls-18" d="M158.27,590.62c2,1.94,4.9,2.12,6.37.41s1-4.66-1-6.6-4.9-2.12-6.37-.41S156.22,588.69,158.27,590.62Z"/><path class="cls-25" d="M175.59,587.39a.4.4,0,0,0,.27-.24.41.41,0,0,0-.23-.53,4.43,4.43,0,0,0-5.29,1.21.41.41,0,0,0,0,.58.45.45,0,0,0,.58,0,7.06,7.06,0,0,1,4.4-1A.39.39,0,0,0,175.59,587.39Z"/><path class="cls-25" d="M172.37,591.91c0,1,.53,1.78,1.24,1.8s1.3-.76,1.33-1.73-.53-1.79-1.24-1.8S172.4,590.93,172.37,591.91Z"/><path class="cls-25" d="M190.21,589.45a.46.46,0,0,0,.35-.12.42.42,0,0,0,0-.58,4.45,4.45,0,0,0-5.36-.9.41.41,0,0,0-.2.54.45.45,0,0,0,.54.21,6.94,6.94,0,0,1,4.45.74A.41.41,0,0,0,190.21,589.45Z"/><path class="cls-25" d="M185.52,592.4a1.59,1.59,0,0,0,.46,2.14c.64.29,1.49-.21,1.89-1.1a1.35,1.35,0,1,0-2.35-1Z"/><g class="cls-20"><path class="cls-5" d="M165.47,586.5c-1.62,5.28-.09,11.18,3.42,13.19s7.65-.64,9.27-5.92.08-11.18-3.42-13.19S167.08,581.22,165.47,586.5Z"/></g><g class="cls-20"><path class="cls-5" d="M183.44,589.68c-1,5.32.77,11,3.95,12.67s6.57-1.29,7.56-6.62-.77-11-3.95-12.67S184.44,584.35,183.44,589.68Z"/></g><path class="cls-10" d="M164.5,590.3c0,.28,0,.57,0,.84a12.15,12.15,0,0,0,2.5,7,6.91,6.91,0,0,0,2,1.69,5.67,5.67,0,0,0,2.23.72l.63,0a6.24,6.24,0,0,0,2.09-.43,8.82,8.82,0,0,0,4.28-4,14,14,0,0,0,1.13-2.64,15.26,15.26,0,0,0,.61-3c.05-.44.07-.86.08-1.29.06-3.79-1.28-7.35-3.6-9.23a6.74,6.74,0,0,0-.91-.63,5.57,5.57,0,0,0-5-.32,9.55,9.55,0,0,0-5,5.48c-.16.39-.29.78-.42,1.19-.08.24-.15.49-.21.73a16.19,16.19,0,0,0-.39,2.15A13.35,13.35,0,0,0,164.5,590.3Zm11.12,8a6.72,6.72,0,0,1-1.91,1.2,4.88,4.88,0,0,1-4.36-.29,6.5,6.5,0,0,1-2-1.8,12,12,0,0,1-2.16-7.23h0c0-.42,0-.86.07-1.29a10.19,10.19,0,0,1,.16-1.22,14.28,14.28,0,0,1,1-3.39,9,9,0,0,1,.41-.82l0,0a.41.41,0,0,0,.05-.09,10.22,10.22,0,0,1,.95-1.41,7.36,7.36,0,0,1,3-2.31,5,5,0,0,1,4.36.28,6.36,6.36,0,0,1,.69.46c2.28,1.73,3.57,5.19,3.48,8.87a11.53,11.53,0,0,1-.09,1.31,14.58,14.58,0,0,1-.57,2.73,12.34,12.34,0,0,1-1.08,2.51,9.33,9.33,0,0,1-2,2.51Z"/><path class="cls-10" d="M183.16,592.79c0,.3,0,.59,0,.88s.05.59.08.87,0,.4.07.58c0,0,0,0,0,.08s.05.31.08.47a0,0,0,0,1,0,0,16.49,16.49,0,0,1,0-4.49l-.22-.14c0,.3-.06.58-.07.87S183.16,592.51,183.16,592.79Zm0,0c0,.3,0,.59,0,.88s.05.59.08.87,0,.4.07.58c0,0,0,0,0,.08s.05.31.08.47a0,0,0,0,1,0,0,16.49,16.49,0,0,1,0-4.49l-.22-.14c0,.3-.06.58-.07.87S183.16,592.51,183.16,592.79Zm0,0c0,.3,0,.59,0,.88s.05.59.08.87,0,.4.07.58c0,0,0,0,0,.08s.05.31.08.47a0,0,0,0,1,0,0,16.49,16.49,0,0,1,0-4.49l-.22-.14c0,.3-.06.58-.07.87S183.16,592.51,183.16,592.79Zm0,0c0,.3,0,.59,0,.88s.05.59.08.87,0,.4.07.58c0,0,0,0,0,.08s.05.31.08.47a0,0,0,0,1,0,0,16.49,16.49,0,0,1,0-4.49l-.22-.14c0,.3-.06.58-.07.87S183.16,592.51,183.16,592.79Zm0,0c0,.3,0,.59,0,.88s.05.59.08.87,0,.4.07.58c0,0,0,0,0,.08s.05.31.08.47a0,0,0,0,1,0,0,16.49,16.49,0,0,1,0-4.49l-.22-.14c0,.3-.06.58-.07.87S183.16,592.51,183.16,592.79Zm0,0c0,.3,0,.59,0,.88s.05.59.08.87,0,.4.07.58c0,0,0,0,0,.08s.05.31.08.47a0,0,0,0,1,0,0,16.49,16.49,0,0,1,0-4.49l-.22-.14c0,.3-.06.58-.07.87S183.16,592.51,183.16,592.79Zm0,0c0,.3,0,.59,0,.88s.05.59.08.87,0,.4.07.58c0,0,0,0,0,.08s.05.31.08.47a0,0,0,0,1,0,0,16.49,16.49,0,0,1,0-4.49l-.22-.14c0,.3-.06.58-.07.87S183.16,592.51,183.16,592.79Zm0,0c0,.3,0,.59,0,.88s.05.59.08.87,0,.4.07.58c0,0,0,0,0,.08s.05.31.08.47a0,0,0,0,1,0,0,16.49,16.49,0,0,1,0-4.49l-.22-.14c0,.3-.06.58-.07.87S183.16,592.51,183.16,592.79Zm-.53.83a14.46,14.46,0,0,0,1,5.42h0a7,7,0,0,0,2.84,3.51l.23.13h0a4.21,4.21,0,0,0,2,.47,4.56,4.56,0,0,0,1.74-.36c2.26-.93,4.19-3.53,5.15-7,1.57-5.59.11-11.7-3.24-13.63l-.22-.12h0a5.37,5.37,0,0,0-.88-.35,4.66,4.66,0,0,0-1.28-.14,4.93,4.93,0,0,0-1.6.36c-2.26.93-4.19,3.53-5.15,7l-.18.67c-.09.42-.18.84-.24,1.27A16.07,16.07,0,0,0,182.63,593.62Zm.81,2.08a16.49,16.49,0,0,1,0-4.49c.07-.45.15-.89.25-1.33.06-.26.12-.51.19-.77a13.3,13.3,0,0,1,1.94-4.15,7,7,0,0,1,2.71-2.31l.11,0a3.94,3.94,0,0,1,1.49-.31,3.57,3.57,0,0,1,1.28.23,5.51,5.51,0,0,1,.61.28c3.1,1.79,4.42,7.55,2.93,12.87l0,.07h0v.06c-.92,3.16-2.68,5.53-4.72,6.37a3.66,3.66,0,0,1-3,0,1.68,1.68,0,0,1-.33-.16,2.68,2.68,0,0,1-.28-.18l-.07,0h0l0,0a5.74,5.74,0,0,1-1.79-2.1,11.21,11.21,0,0,1-1.21-3.73A1.25,1.25,0,0,0,183.44,595.7Zm-.28-2.91c0,.3,0,.59,0,.88s.05.59.08.87,0,.4.07.58c0,0,0,0,0,.08s.05.31.08.47a0,0,0,0,1,0,0,16.49,16.49,0,0,1,0-4.49l-.22-.14c0,.3-.06.58-.07.87S183.16,592.51,183.16,592.79Zm0,0c0,.3,0,.59,0,.88s.05.59.08.87,0,.4.07.58c0,0,0,0,0,.08s.05.31.08.47a0,0,0,0,1,0,0,16.49,16.49,0,0,1,0-4.49l-.22-.14c0,.3-.06.58-.07.87S183.16,592.51,183.16,592.79Zm0,0c0,.3,0,.59,0,.88s.05.59.08.87,0,.4.07.58c0,0,0,0,0,.08s.05.31.08.47a0,0,0,0,1,0,0,16.49,16.49,0,0,1,0-4.49l-.22-.14c0,.3-.06.58-.07.87S183.16,592.51,183.16,592.79Zm0,0c0,.3,0,.59,0,.88s.05.59.08.87,0,.4.07.58c0,0,0,0,0,.08s.05.31.08.47a0,0,0,0,1,0,0,16.49,16.49,0,0,1,0-4.49l-.22-.14c0,.3-.06.58-.07.87S183.16,592.51,183.16,592.79Zm0,0c0,.3,0,.59,0,.88s.05.59.08.87,0,.4.07.58c0,0,0,0,0,.08s.05.31.08.47a0,0,0,0,1,0,0,16.49,16.49,0,0,1,0-4.49l-.22-.14c0,.3-.06.58-.07.87S183.16,592.51,183.16,592.79Zm0,0c0,.3,0,.59,0,.88s.05.59.08.87,0,.4.07.58c0,0,0,0,0,.08s.05.31.08.47a0,0,0,0,1,0,0,16.49,16.49,0,0,1,0-4.49l-.22-.14c0,.3-.06.58-.07.87S183.16,592.51,183.16,592.79Zm0,0c0,.3,0,.59,0,.88s.05.59.08.87,0,.4.07.58c0,0,0,0,0,.08s.05.31.08.47a0,0,0,0,1,0,0,16.49,16.49,0,0,1,0-4.49l-.22-.14c0,.3-.06.58-.07.87S183.16,592.51,183.16,592.79Z"/><path class="cls-10" d="M183.9,591.37a.64.64,0,0,0,.39-1.14,6.94,6.94,0,0,0-5.65-.87.63.63,0,0,0-.47.76.64.64,0,0,0,.76.48,5.65,5.65,0,0,1,4.58.64A.63.63,0,0,0,183.9,591.37Z"/><path class="cls-17" d="M164.22,565.54s-1.77-14.42-14.52-12.71-10.1,8.91-9.35,13.39c.55,3.33,5.73,8.65,12,8.16S164.22,565.54,164.22,565.54Z"/><path class="cls-17" d="M151.91,608.91a.39.39,0,0,1-.3-.65,17.62,17.62,0,0,1,8.34-4.75.38.38,0,0,1,.47.29.38.38,0,0,1-.29.47,17.23,17.23,0,0,0-7.93,4.51A.39.39,0,0,1,151.91,608.91Z"/><path class="cls-23" d="M179.14,604a11,11,0,0,1-5.13-1.72.21.21,0,0,1-.06-.3.22.22,0,0,1,.29-.06s4.75,3.07,7.34.82a.21.21,0,1,1,.27.31A4,4,0,0,1,179.14,604Z"/><text class="cls-29" transform="translate(917.86 550.32)">a<tspan class="cls-30" x="5.78" y="0">c</tspan><tspan x="11.09" y="0">c9c5</tspan></text></svg>