<svg xmlns="http://www.w3.org/2000/svg" xmlns:xlink="http://www.w3.org/1999/xlink" viewBox="0 0 720 400"><defs><style>.cls-1{fill:none;}.cls-2{fill:#15204f;}.cls-3,.cls-4{fill:#fff;}.cls-4{opacity:0;}.cls-5{fill:#6cc;}.cls-6{fill:#9dd4bb;}.cls-7{fill:#f0c57d;}.cls-8{fill:#f79d89;}.cls-9{fill:#ffdc96;}.cls-10{fill:#ff947a;}.cls-11{fill:#fff6d9;}.cls-12{fill:#ffe1b0;}.cls-13{fill:#a2e8d8;}.cls-14{fill:#a2ebd2;}.cls-15{fill:#bd4f35;}.cls-16{fill:#8c341f;}.cls-17{fill:#6b2819;}.cls-18{fill:#5c3e19;}.cls-19{fill:#42301a;}.cls-20{fill:#d48c15;}.cls-21{fill:#f5b9a2;}.cls-22{fill:#b87a61;}.cls-23{fill:#b05d3e;}.cls-24{fill:#331e16;}.cls-25{fill:#d6e3ff;}.cls-26{fill:#a66d0f;}.cls-27{fill:#285451;}.cls-28{fill:#4fa39d;}.cls-29{fill:#3c7d78;}.cls-30{fill:#2e5e5a;}.cls-31{clip-path:url(#clip-path);}.cls-32{fill:#54261e;}.cls-33{fill:#2798a1;}.cls-34{fill:#273c96;}.cls-35{fill:#996f3d;}.cls-36{fill:#805623;}.cls-37{fill:#5c3f1e;}.cls-38{fill:#331712;}.cls-39{fill:#3b1b15;}.cls-40{fill:#0e194d;}.cls-41{fill:#f5a78a;}.cls-42{fill:#cc7658;}.cls-43{fill:#1e2e73;}.cls-44{fill:#3b53c9;}.cls-45{fill:#8a6657;}.cls-46{fill:#542b21;}.cls-47{fill:#361813;}.cls-48{fill:#ab4d37;}.cls-49{fill:#d9b982;}.cls-50{fill:#f0e4df;}.cls-51{fill:#705146;}.cls-52{fill:#d9b882;}.cls-53{fill:#a65428;}.cls-54{clip-path:url(#clip-path-2);}.cls-55{fill:#1f3078;}.cls-56{fill:#d1685a;}.cls-57{fill:#ffbf78;}.cls-58{fill:#6e332b;}.cls-59{fill:#258f75;}.cls-60{fill:#38b093;}.cls-61{fill:#ed9a3e;}.cls-62{fill:#5c2626;}.cls-63{fill:#f06a4a;}.cls-64{fill:#b85d2c;}.cls-65{fill:#d47644;}.cls-66{fill:#4a3511;}.cls-67{fill:#0b635c;}.cls-68{fill:#063632;}.cls-69{fill:#de9d31;}.cls-70{fill:#69460d;}.cls-71{fill:#2b355e;}.cls-72{fill:#f7ba77;}.cls-73{fill:#7e95f2;}.cls-74{fill:#384da1;}.cls-75{fill:#4256a3;}.cls-76{fill:#85392f;}.cls-77{fill:#ab4c41;}.cls-78{fill:#273361;}.cls-79{fill:#6cd1c9;}.cls-80{fill:#55ada7;}.cls-81{fill:#4c6eff;}</style><clipPath id="clip-path"><polygon class="cls-1" points="647.37 245.26 600.71 309.17 308.08 279.42 402.68 224.9 464.54 230.05 549.56 237.12 647.37 245.26"/></clipPath><clipPath id="clip-path-2"><polygon class="cls-2" points="455.56 281.24 393.13 270.57 415.23 261.65 477.67 271.44 455.56 281.24"/></clipPath></defs><g id="_0" data-name="0"><rect class="cls-3" width="720" height="400"/><rect class="cls-4" width="720" height="400"/><path class="cls-5" d="M720,71.3V400H373.8C254.6,346.93,202.39,262.18,112,247.71,57,238.88,22,252.7,0,270.91V0H195.52c60.28,39.37,71.36,118.35,152.74,143,153,46.33,179.21-74.51,328.57-75.3A232.24,232.24,0,0,1,720,71.3Z"/></g><g id="bg"><path class="cls-6" d="M431.06,255c-4.81,15-61.27,39.34-106.29,28.28-36.48-9-55.66-35-50.85-50s42.37-19,79.4,2.85C399.24,263.26,435.87,240,431.06,255Z"/><path class="cls-7" d="M508.67,306.06c-18.09-6.78-38.57-13.1-69.29,9.19-19.12,13.87-30.71,29.57-57.41,32.81-42.89,5.21-65.07-16.16-56.28-35.77,6-13.33,23.1-23.84,53.57-26.07a122.28,122.28,0,0,1,30.37,1.38l16.89-12.13Z"/><path class="cls-3" d="M549.81,355.51c-2.95,1.31-7.88-1.5-10.16-6.67s-3.79-13.54-.84-14.85,9.67,4.75,12.22,9.79C553.92,349.49,552.77,354.21,549.81,355.51Z"/><path class="cls-8" d="M512.78,278.05c-9.21,3-17.89,5.34-26.26,10.55a63.33,63.33,0,0,0-23,25.31c-4.68,9.14-8,18.94-13.38,27.72-8.18,13.31-26.67,24.72-40,15.56-9.79-6.72-7.55-19.48-3.64-27.37,10.48-21.14,34.54-27,55.26-34.89C469.06,292.15,512.77,278.05,512.78,278.05Z"/><path class="cls-9" d="M652.91,400h-57l-.73-.6c-19.78-16.63-32.21-44.35-25.65-52.16s40.31,4.43,60.36,20.73C646.08,381.15,652.1,392,652.91,400Z"/><path class="cls-8" d="M325.7,198c2,1.57,3.9,3.19,5.74,4.77,8.48,7.26,17.34,14.44,27.82,18.58,10.82,4.27,24.68,6.37,36.46,11.23a81.8,81.8,0,0,1,21.81,12.92c8.87,8,.74,17.52-11,16.64-44.77-3.34-70.27-17-96.65-41.38a58,58,0,0,1-6.63-7c-4-5.12-11.3-15.49-7.12-22.26,1.51-2.44,4.59-3.53,7.46-3.43C311.88,188.29,319.19,192.82,325.7,198Z"/><path class="cls-10" d="M278.56,284.87c.39,4.27-9.79,9.43-26.24,9-10.86-.28-19.41-4.74-19.13-9s9.29-7.17,20.13-6.47S278.25,281.51,278.56,284.87Z"/><path class="cls-7" d="M605.41,260.13c-23.36,7-46.57,22.36-53.42,13.54s-1-19.41,10.14-41.1c18-34.86,77.54-48.93,93.47-36.44C671.22,208.36,655.12,245.17,605.41,260.13Z"/><path class="cls-6" d="M653.91,282.91c-32-8.42-54.84-6.48-55.61-5.38L586.12,295a1.31,1.31,0,0,0,1.12,2c11.57-1.5,23,1.33,33.91,5s23.39,12.25,34.88,14.65c15.13,3.15,33.06.16,30.09-13.86C685.51,299.92,681.76,290.23,653.91,282.91Z"/><path class="cls-8" d="M647.37,272c1.4,4.23-6.67,8.81-13.86,10.75-9.61,2.58-13.67-.18-14.08-2.9s3.57-6.89,10.94-8S646.5,269.39,647.37,272Z"/><path class="cls-3" d="M648.66,338.57c-1.5,1.49-5.69-.28-9.38-4s-5.46-7.88-4-9.37,5.69.28,9.38,4S650.15,337.08,648.66,338.57Z"/><path class="cls-9" d="M509.18,310.3c7,10.77,3.06,17.34-1.49,19.88-6.69,3.74-16.78-2.07-19.53-11.37-2.71-9.14.5-18.61,5.27-20.72S503.87,302.19,509.18,310.3Z"/><path class="cls-11" d="M339.33,69.53c9.16-.44,17.35,7.5,22.63,14.06,10.9,13.57,21.28,26.9,25.3,44.53.12.49.22,1.39.29,1.88a4.79,4.79,0,1,1-9.47,1.5s0,.11,0,.11l-.11-.18c-1.19-2.2-3.95-3.42-5.5-5.44-9.07-11.76-19.59-21.64-29.86-32.26-4.13-4.28-8.73-8.89-11-14.49-1.66-4.09.11-8,4.56-9.22A15.43,15.43,0,0,1,339.33,69.53Z"/><path class="cls-8" d="M452.4,155.39c10.06,3.92,30.84,5.41,41-6.75,2.64-3.16,13.15-13.26,18.38-14.46,11.59-2.66,2.47,16.1-12,25.95a51.07,51.07,0,0,1-18.36,7.39c-9.1,1.88-18.21.95-26.94-1.65a53.55,53.55,0,0,1-6-2.18,4.59,4.59,0,0,1-2.31-6.06A4.73,4.73,0,0,1,452.4,155.39Z"/><path class="cls-8" d="M303.48,128.36c6.29,2.41,14.48,9.92,20,13.77,5.95,4.16,9.3,7.31,16.19,9.57A67.62,67.62,0,0,0,357,154.82a3,3,0,0,1,.24,6c-16.56,1.83-33.61-.44-48-8.59-12.09-6.84-19.79-15.27-21.3-19.41C285.92,127.26,292,124,303.48,128.36Z"/><path class="cls-9" d="M335.37,172c8.47,3.17,17.46,5.27,16.78,7.74s-10.49,3.58-19.22,1.2-14.69-6.22-14.58-8.78S321.43,166.82,335.37,172Z"/><path class="cls-11" d="M459.17,104.71a195.18,195.18,0,0,0-17.39,19.64c-1.8,2.35-7,9.05-10.21,5-1.39-1.77,3.9-18.6,18-34.45S481,73.13,483.92,77c3.2,4.25-6.71,11.48-9.31,13.66C469.25,95.17,464.09,99.83,459.17,104.71Z"/><path class="cls-9" d="M466.78,37.43c-2.8,3.71-5.21,8.22-5.83,12.88-.29,2.12-.48,6.58,2.65,6.73a4.29,4.29,0,0,0,1.95-.48c2.51-1.16,4-3.44,5.39-5.69,2.73-4.35,5.9-8.35,8.88-12.52,1.23-1.72,3.81-4.86,3.5-7.12-.54-4-5.91-2.27-8.21-1.1A25,25,0,0,0,466.78,37.43Z"/><path class="cls-9" d="M476.12,186.55c2.87.14,7.89-1.16,7.39-5a5.25,5.25,0,0,0-2.95-3.61,62.83,62.83,0,0,0-20.13-6.72c-4.37-.7-8.62,1.89-5.52,6.7C458.76,183.9,469.58,186.22,476.12,186.55Z"/><path class="cls-9" d="M381.85,215.25c1.76-.26,4.63-1.67,3.86-3.92a3.25,3.25,0,0,0-2.23-1.82,39,39,0,0,0-13-1.58c-2.74.12-5,2.21-2.51,4.74C371,215.8,377.86,215.86,381.85,215.25Z"/><path class="cls-12" d="M542.34,88.73c-2.11,4-5.43,6.35-7.41,5.3s-1.88-5.13.23-9.1,5.43-6.35,7.41-5.3S544.45,84.76,542.34,88.73Z"/><path class="cls-12" d="M226.86,348.19c-7.73,2.5-14.48,3-15.08,1.15s5.18-5.39,12.91-7.89,14.49-3,15.09-1.15S234.6,345.7,226.86,348.19Z"/><path class="cls-12" d="M280.14,371.7c-1.43,2-3.82,2.68-5.34,1.57s-1.58-3.58-.15-5.55,3.82-2.68,5.33-1.58S281.57,369.73,280.14,371.7Z"/><path class="cls-3" d="M288.73,315.45a2.45,2.45,0,0,1-3.26,1c-.92-.67-1-2.19-.09-3.4s2.33-1.63,3.25-1S289.6,314.24,288.73,315.45Z"/><path class="cls-3" d="M680.87,172.05a2.45,2.45,0,0,1-3.3-.81c-.46-1.05.27-2.38,1.63-3s2.83-.24,3.3.81S682.23,171.45,680.87,172.05Z"/><path class="cls-13" d="M647,156.26a1.07,1.07,0,1,1-.83-1.89,1.07,1.07,0,1,1,.83,1.89Z"/><path class="cls-13" d="M518.53,377.26a1.07,1.07,0,1,1,.81-1.49A1.22,1.22,0,0,1,518.53,377.26Z"/><path class="cls-13" d="M697.9,256.77a1.07,1.07,0,1,1,.81-1.49A1.22,1.22,0,0,1,697.9,256.77Z"/><path class="cls-13" d="M228,245a1.07,1.07,0,1,1,.81-1.49A1.22,1.22,0,0,1,228,245Z"/><path class="cls-13" d="M195.84,156.51a1.07,1.07,0,1,1-.83-1.9,1.07,1.07,0,1,1,.83,1.9Z"/><ellipse class="cls-12" cx="235.42" cy="175.28" rx="8.28" ry="3.62"/><path class="cls-9" d="M243.6,60.76a4.86,4.86,0,0,0-3.89,2.8c-2.11,5,6.7,7.17,9.79,8.42,8,3.25,15.52,7.78,23.79,10.45,2,.63,9.71,3.51,11.55,1.95,2.52-2.14-1.42-5.38-3.36-6.85-8-6-17.06-12.09-26.71-15.15C252.29,61.59,247.26,60.08,243.6,60.76Z"/><ellipse class="cls-12" cx="433.22" cy="38.04" rx="2.48" ry="6.17"/><ellipse class="cls-8" cx="589.35" cy="62.19" rx="11.85" ry="4.34" transform="translate(128.64 434.95) rotate(-45)"/><ellipse class="cls-3" cx="636.57" cy="116.72" rx="24.61" ry="7.31" transform="translate(78.94 445.2) rotate(-40.89)"/><path class="cls-12" d="M665.13,170.21c-2.3,1-4.69.68-5.32-.76s.72-3.42,3-4.44,4.69-.68,5.33.75S667.44,169.19,665.13,170.21Z"/><path class="cls-12" d="M662.48,43.51c-2.3,1-4.69.68-5.32-.75s.72-3.43,3-4.45,4.69-.68,5.33.75S664.79,42.49,662.48,43.51Z"/><path class="cls-9" d="M358.27,104.54c-1.33,2.83-8.16,2.41-15.24-.93s-11.75-8.34-10.42-11.16,8.16-2.41,15.24.93S359.6,101.71,358.27,104.54Z"/><ellipse class="cls-11" cx="440.71" cy="101.78" rx="14.06" ry="5.02" transform="translate(160.74 457.03) rotate(-64.76)"/><path class="cls-11" d="M345.6,32.78c2.12,2.12,3.22,4.45,2.47,5.2s-3.09-.34-5.21-2.46-3.23-4.45-2.47-5.21S343.48,30.66,345.6,32.78Z"/><path class="cls-8" d="M464.22,215c-3.33,2.11-6.52,3-7.15,2.05s1.57-3.49,4.89-5.6,6.53-3,7.15-2S467.54,212.92,464.22,215Z"/><path class="cls-13" d="M422.33,218.75c-3.1.17-5.68-.94-5.76-2.48s2.35-2.94,5.44-3.11,5.68.94,5.76,2.48S425.42,218.58,422.33,218.75Z"/><path class="cls-14" d="M494.73,185.27c-1.94,1.93-4.33,2.69-5.33,1.68s-.25-3.39,1.68-5.33,4.32-2.69,5.33-1.68S496.66,183.33,494.73,185.27Z"/><path class="cls-14" d="M312.18,106.5c-.66,1.14-2.93,1.07-5.07-.16s-3.33-3.16-2.67-4.31,2.93-1.07,5.07.16S312.84,105.35,312.18,106.5Z"/><path class="cls-14" d="M516.77,107.91A3,3,0,1,1,512.6,109,3.05,3.05,0,0,1,516.77,107.91Z"/><path class="cls-13" d="M357.07,57.53a1.52,1.52,0,1,1-2.08.56A1.52,1.52,0,0,1,357.07,57.53Z"/><path class="cls-14" d="M311.67,45.81a1.53,1.53,0,1,1-2.09.56A1.54,1.54,0,0,1,311.67,45.81Z"/><path class="cls-13" d="M279.62,154a3.89,3.89,0,1,1-5.31,1.43A3.9,3.9,0,0,1,279.62,154Z"/><path class="cls-13" d="M519.74,53.71c2-2.08,4.87-2.57,6.42-1.09s1.2,4.38-.79,6.47-4.87,2.57-6.42,1.08S517.75,55.8,519.74,53.71Z"/></g><g id="girl"><path class="cls-15" d="M616,182.06c-.32,6.61-7,11.78-15.41,12.16-.64,0-1.29,0-2,0-9.26-.4-16.5-6.5-16.16-13.62A9.77,9.77,0,0,1,583,178c1.12-3.5,4.1-6.37,8.07-8a20.08,20.08,0,0,1,6-1.43,20.53,20.53,0,0,1,2.84-.07,22.33,22.33,0,0,1,4.24.61,20.64,20.64,0,0,1,2.66.85,17.7,17.7,0,0,1,4.12,2.31,12.37,12.37,0,0,1,1.29,1.09l.22.2A11.22,11.22,0,0,1,616,182.06Z"/><path class="cls-16" d="M616,182.06c-.32,6.61-7,11.78-15.41,12.16L596,188c.51-.15,10.18,2,15.66-3.74,5.08-5.35.54-10.94.54-10.94l.22.2A11.22,11.22,0,0,1,616,182.06Z"/><path class="cls-16" d="M611.13,172.46a8.44,8.44,0,0,0-8.71.57l1.68-4a18.53,18.53,0,0,1,6.78,3.16Z"/><path class="cls-15" d="M606.76,169.91c-1,2.21-3.65,4.23-7,5a10.73,10.73,0,0,1-5.66-.09,4.29,4.29,0,0,1-3.18-3.28,3.78,3.78,0,0,1,.14-1.63c.71-2.42,3.56-4.74,7.2-5.6a12,12,0,0,1,2.06-.31c3.57-.25,6.44,1.22,6.79,3.68A4,4,0,0,1,606.76,169.91Z"/><path class="cls-17" d="M603.16,173.82a.21.21,0,0,1-.19-.11.21.21,0,0,1,.08-.29s4.11-2.33,3.83-5.68a.22.22,0,1,1,.44,0c.3,3.63-3.88,6-4.06,6.1A.18.18,0,0,1,603.16,173.82Z"/><path class="cls-16" d="M600.31,164c-3.19.63-3.56,4-3.6,6.62a12.4,12.4,0,0,1-11.49,12.57c-3.18.32-1.45-3.17-2.24-5.25,1.12-3.5,4.1-6.37,8.07-8,.71-2.42,3.56-4.74,7.2-5.6A12,12,0,0,1,600.31,164Z"/><path class="cls-15" d="M594.91,171.46c-1.23,7-6.55,14.13-14.66,18.49-12.27,6.62-26.32,4.39-31.34-4.95-4.25-7.88-.71-18.32,7.87-25.36a31.86,31.86,0,0,1,5.27-3.53,32.91,32.91,0,0,1,7.05-2.81,30.85,30.85,0,0,1,4.52-.84c8.53-.9,16.31,2.15,19.78,8.6A15.81,15.81,0,0,1,594.91,171.46Z"/><path class="cls-15" d="M611.81,207c-1.49,11.42-14.6,19.12-29.28,17.21a29,29,0,0,1-3.14-.57c-13-2.92-22.13-13-20.76-23.57,1.5-11.42,14.6-19.12,29.29-17.21a30.6,30.6,0,0,1,18.81,9.37C610.53,196.47,612.5,201.68,611.81,207Z"/><path class="cls-15" d="M534.59,165.92a19.52,19.52,0,0,1-5,1.26c-7.46.86-14-2.54-14.58-7.61a7.87,7.87,0,0,1,2.86-6.63h0a15.61,15.61,0,0,1,5.57-3.21,20.11,20.11,0,0,1,8.19-.94c5.58.55,9.92,3.55,10.4,7.64C542.5,160.28,539.39,164,534.59,165.92Z"/><path class="cls-15" d="M542.49,190.3a7.84,7.84,0,0,1-1.33,2.7,9.31,9.31,0,0,1-1.55,1.59c-2.89,2.32-7.41,3.19-12,1.95a15.54,15.54,0,0,1-5.9-3c-3.13-2.65-4.69-6.37-3.74-9.87a8.15,8.15,0,0,1,.75-1.8s0,0,0,0c1.89-3.32,6.12-5.22,10.82-4.95a15.81,15.81,0,0,1,3.28.54q.51.13,1,.3C540,179.79,543.86,185.27,542.49,190.3Z"/><path class="cls-16" d="M611.81,207c-1.49,11.42-14.6,19.12-29.28,17.21a29,29,0,0,1-3.14-.57V203.56c0,1.12,6.59,12,19.61,9.78,12.67-2.15,11.48-18,6.8-21.82l.93.72C610.53,196.47,612.5,201.68,611.81,207Z"/><ellipse class="cls-15" cx="553.47" cy="193.92" rx="26.96" ry="18.72" transform="translate(-9.94 31.12) rotate(-3.19)"/><path class="cls-18" d="M589.7,228.08,578,257.42l-71.52-11.67-3.75-26.26A25.17,25.17,0,0,1,531.16,191L570,196.58l.56-.64,5.54,2,.28.09,1,.4A23,23,0,0,1,589.7,228.08Z"/><path class="cls-16" d="M570.5,154.43c-6.43.14-3.11,10.95-8.14,11.64s-5.08-5.9-5.1-6l-.48-.38a31.86,31.86,0,0,1,5.27-3.53,32.91,32.91,0,0,1,7.05-2.81Z"/><path class="cls-18" d="M577.4,198.37l0,0-1-.4Z"/><path class="cls-15" d="M577.63,162.27c-2.62,2.74-7.21,2.61-10.26-.31s-3.4-7.5-.78-10.24,7.22-2.61,10.27.31S580.26,159.53,577.63,162.27Z"/><path class="cls-16" d="M541.21,194.45l-1.6.14-6.41.55-11.46-1.65c-3.13-2.65-4.69-6.37-3.74-9.87a8.15,8.15,0,0,1,.75-1.8c-1.7,3.79,3.09,7.28,8.42,4.81,4.31-2,3.11-7.56,2.41-9.79-.17-.53-.31-.88-.34-.94l4,1.31.59.47,7,5.55.35,9.77Z"/><path class="cls-19" d="M573.5,255.67l-68.94-14-3.09-23.46a24.65,24.65,0,0,1,27.32-27.69l37.9,4.46a23.77,23.77,0,0,1,18.19,32.28Z"/><path class="cls-16" d="M531.9,149.31c0,.89-1.92,1.6-4.3,1.6-2,0-3.65-.5-4.14-1.19a20.11,20.11,0,0,1,8.19-.94A.75.75,0,0,1,531.9,149.31Z"/><path class="cls-15" d="M542.84,177.6l-15.87-5L532.28,146l13.51,2a15,15,0,0,1,12.59,17l-.46,3.06A11.7,11.7,0,0,1,542.84,177.6Z"/><path class="cls-20" d="M571.31,205.7c-4.65,9.69-10.83,32.43-15.94,45.58-13.65-5.48-29.42-7.72-44-10-2.61-.4-5.18-.81-7.69-1.22-2.89-6.6,3.23-17.54,5.79-28.58a0,0,0,0,0,0,0,35.23,35.23,0,0,0,1-9.21c-.19-4.41-.93-10,3.36-11a72.56,72.56,0,0,1,13.09-1.84,91.71,91.71,0,0,1,27.2,2.85,79.9,79.9,0,0,1,14.23,5.1A6.25,6.25,0,0,1,571.31,205.7Z"/><path class="cls-15" d="M542.17,149.06c-.09.62-1.95.91-3.94,1.06-1.17,1.45-4.29,1.82-7.56.77-3.74-1.19-6.24-3.8-5.59-5.82s4.2-2.69,7.94-1.49h0l.21.08.13.05a11.32,11.32,0,0,1,1.69.73h0c.3.14,5.19,2.43,6.88,4.17A.52.52,0,0,1,542.17,149.06Z"/><path class="cls-16" d="M542.17,149.06a1.19,1.19,0,0,1-.41.18c-3.12.8-4.63-1.54-6-3.43a5.77,5.77,0,0,0-2.41-2.09,11.32,11.32,0,0,1,1.69.73h0c.3.14,5.19,2.43,6.88,4.17A.52.52,0,0,1,542.17,149.06Z"/><path class="cls-15" d="M545.2,151.47c-1.6,1.38-4.26.94-5.94-1s-1.73-4.63-.13-6,4.26-.94,5.94,1S546.8,150.08,545.2,151.47Z"/><path class="cls-3" d="M554.15,192.76a40.51,40.51,0,0,0-3.13,7.07c-3.55,9.91-7,25.26-8.82,33.62-.57,2.72-1,4.7-1.14,5.51,0,.27-.08.41-.08.41l-25.06-1.2c.1-.66.22-1.32.34-2,0-.2.09-.48.15-.83l.15-.88c.5-2.71,1.08-5.42,1.7-8.11.69-3,1.44-6,2.22-8.89,2.46-9.11,5.15-17.28,7-22.55.95-2.72,1.66-4.66,2-5.59a92.17,92.17,0,0,1,24.66,2.93C554.15,192.43,554.15,192.6,554.15,192.76Z"/><path class="cls-21" d="M554.15,192.76a40.51,40.51,0,0,0-3.13,7.07,14.46,14.46,0,0,1-12.55,3.47c-5.29-.93-9.43-4.27-11-8.37.95-2.72,1.66-4.66,2-5.59a92.17,92.17,0,0,1,24.66,2.93C554.15,192.43,554.15,192.6,554.15,192.76Z"/><path class="cls-16" d="M538.69,156.43l-4.1,9.49a19.52,19.52,0,0,1-5,1.26c-7.46.86-14-2.54-14.58-7.61a7.87,7.87,0,0,1,2.86-6.63c-.21.27-2.52,3.12,1,6.36C523.05,163.25,536.64,160.38,538.69,156.43Z"/><polygon class="cls-21" points="552.34 172.6 549.56 196.31 532.1 193.86 532.91 187 532.91 186.99 534.02 177.54 534.39 174.39 534.89 170.15 552.34 172.6"/><path class="cls-22" d="M547.11,180c0,3.47-6.72,7.89-14.2,7h0l1.11-9.45.4-3.15C541.53,174.56,547.11,176.66,547.11,180Z"/><path class="cls-21" d="M537.94,184.25c-6,.05-10.68-3.67-11.27-10.6s.56-17.62,7.57-21.2a15.56,15.56,0,0,1,13.81.28c4.12,2.29,5.46,5,5.06,9.57l-.07,7.34a17.43,17.43,0,0,1-3.21,8.86A14.8,14.8,0,0,1,537.94,184.25Z"/><path class="cls-15" d="M551.74,169.77c3.59-13.75-16-16.15-10.82-21.23l11.73,3.55,4.26,9.91-2.55,6.13S551.44,170.93,551.74,169.77Z"/><path class="cls-15" d="M574.77,190.55l-1.28,3.37a14.78,14.78,0,0,1-1.12,1.12l-.47-.08h0a11.23,11.23,0,0,0-6.46,1,0,0,0,0,0,0,0,11,11,0,0,1-7,2.76c-5.38.24-9.91-3.05-10.1-7.35v-.08c-.34-3,1.27-6.83,2.47-10.08l0-.08c.05-.13.1-.25.14-.37a.06.06,0,0,1,0,0,17.3,17.3,0,0,0,1-3.54l1.67,2.13s.87,1.91,1.87,4.15a11.52,11.52,0,0,1,2.24-.31c5-.22,9.32,2.64,10,6.53l1.54-.39Z"/><path class="cls-3" d="M540.28,174.16a2.83,2.83,0,0,1-3.85-1.67,12.24,12.24,0,0,0,3-.65,12.57,12.57,0,0,0,2.73-1.31A3.45,3.45,0,0,1,540.28,174.16Z"/><path class="cls-23" d="M536.64,168.39h0l-1-.09a1.65,1.65,0,0,1-1-2.81l1.57-1.57a.23.23,0,0,1,.31,0,.22.22,0,0,1,0,.31l-1.57,1.57a1.21,1.21,0,0,0,.74,2.06l1,.1a.2.2,0,0,1,.19.23A.21.21,0,0,1,536.64,168.39Z"/><path class="cls-24" d="M542.73,163.45c-.15.81-.77,1.37-1.38,1.26a1.34,1.34,0,0,1-.83-1.67c.15-.81.77-1.37,1.38-1.26A1.35,1.35,0,0,1,542.73,163.45Z"/><path class="cls-24" d="M532.35,162.46c-.15.81-.77,1.37-1.38,1.26a1.35,1.35,0,0,1-.83-1.67c.15-.81.76-1.37,1.37-1.26A1.34,1.34,0,0,1,532.35,162.46Z"/><path class="cls-20" d="M519.41,217.06c-3.3,1.59-6.47,3.09-9.58,4.57-5.42,2.58-10.7,5.09-16.27,7.94-2.71,1.37-5.5,2.84-8.4,4.42l-14.49-19.32c11-6.95,30-20.8,43.77-23.55L517.93,212Z"/><path class="cls-24" d="M543.93,163.67a.24.24,0,0,1-.19-.1,5.36,5.36,0,0,0-2.87-1.94.22.22,0,1,1,.11-.42,5.88,5.88,0,0,1,3.13,2.12.21.21,0,0,1-.07.3A.15.15,0,0,1,543.93,163.67Z"/><path class="cls-24" d="M533.58,163a.24.24,0,0,1-.2-.12,5.42,5.42,0,0,0-2.63-2.27.22.22,0,0,1-.12-.28.22.22,0,0,1,.29-.12,5.78,5.78,0,0,1,2.85,2.47.22.22,0,0,1-.1.3Z"/><path class="cls-17" d="M541.05,157.1c2.51-.94,6.11,1,6,3.84a.35.35,0,0,1-.36.33.36.36,0,0,1-.26-.14,8.06,8.06,0,0,0-2.32-2.06,9.31,9.31,0,0,0-3-1,.5.5,0,0,1-.07-1Z"/><path class="cls-17" d="M534.56,156.7a6.86,6.86,0,0,0-5.38,1,.25.25,0,0,1-.39-.26c.59-2.64,4.22-3.37,6.26-2a.73.73,0,0,1-.49,1.33Z"/><path class="cls-17" d="M611.64,201.92a.22.22,0,0,1-.22-.16c-3-12.44-16.67-17-16.81-17.09a.22.22,0,0,1-.14-.28.23.23,0,0,1,.28-.14c.14.05,14,4.73,17.1,17.4a.23.23,0,0,1-.16.27Z"/><path class="cls-16" d="M571.87,195a11.23,11.23,0,0,0-6.46,1,0,0,0,0,0,0,0,11,11,0,0,1-7,2.76c-5.38.24-9.44-2.64-10.22-6.87-.9-4.88,3.78-12.52,3.78-17.1,0-.77,2.55-1.75,2.55-1.75s-.52.77,1.59,4.36-6.16,6.49-5.91,12.33C551.35,199.6,566.87,193.63,571.87,195Z"/><path class="cls-17" d="M558.31,165.82h0a.23.23,0,0,1-.18-.26,13.88,13.88,0,0,0-2.32-11,.21.21,0,0,1,0-.3.22.22,0,0,1,.31,0,14.34,14.34,0,0,1,2.42,11.35A.21.21,0,0,1,558.31,165.82Z"/><path class="cls-17" d="M530.8,151.13h-.07C526,149.57,525,147,525,146.86a.22.22,0,0,1,.14-.28.21.21,0,0,1,.27.13s.93,2.52,5.46,4a.23.23,0,0,1,.14.28A.23.23,0,0,1,530.8,151.13Z"/><path class="cls-17" d="M538.5,150.1a.23.23,0,0,1-.2-.14c-.06-.14-1.36-3.46.42-5.5a.22.22,0,0,1,.31,0,.21.21,0,0,1,0,.3c-1.61,1.84-.36,5-.35,5.06a.21.21,0,0,1-.12.28Z"/><path class="cls-21" d="M556.33,175c-2.64,1.16-5.59.28-6.59-2s.33-5,3-6.21,5.59-.27,6.59,2S559,173.83,556.33,175Z"/><path class="cls-23" d="M555.4,173.12a.21.21,0,0,1-.2-.13.21.21,0,0,1,.11-.28,2.59,2.59,0,0,0,1.29-1.21,1.81,1.81,0,0,0,.06-1.54,1.85,1.85,0,0,0-1.18-1,2.56,2.56,0,0,0-1.76.13.21.21,0,0,1-.28-.11.21.21,0,0,1,.11-.28,3,3,0,0,1,2.06-.16,2.2,2.2,0,0,1,1.38,3.14,3,3,0,0,1-1.5,1.42Z"/><path class="cls-17" d="M563.75,197.43a.22.22,0,0,1-.16-.37s3.82-4.1,11.25-1.62a.22.22,0,0,1,.14.27.22.22,0,0,1-.28.14c-7.16-2.39-10.76,1.46-10.79,1.5A.21.21,0,0,1,563.75,197.43Z"/><path class="cls-25" d="M542.2,233.45c-.57,2.72-1,4.7-1.14,5.51l-24.8-2.77c0-.2.09-.48.15-.83s.09-.55.15-.88c.5-2.71,1.08-5.42,1.7-8.11.69-3,1.44-6,2.22-8.89-.66,5.81-.46,10.2,4.6,14.14C529.24,234.87,539.06,234.87,542.2,233.45Z"/><path class="cls-26" d="M511.35,241.3c-2.61-.4-5.18-.81-7.69-1.22-2.89-6.6,3.23-17.54,5.79-28.58-.15.78-4.11,20.85.94,27.87A4.45,4.45,0,0,1,511.35,241.3Z"/><path class="cls-17" d="M579.39,158.22a.21.21,0,0,1-.22-.21c-.38-7.91-7.45-8.06-7.75-8.06a.22.22,0,1,1,0-.44h0A8.39,8.39,0,0,1,579.6,158a.21.21,0,0,1-.2.23Z"/></g><g id="table"><polygon class="cls-27" points="647.37 245.27 647.37 252.24 600.81 317.88 600.79 317.88 308.09 286.82 308.23 286.74 308.09 286.74 308.09 279.43 327.23 279.43 407.73 233.03 600.79 251.87 633.28 255.04 633.28 245.32 647.37 245.27"/><polygon class="cls-28" points="647.37 245.27 647.37 252.24 600.81 317.88 600.79 317.88 600.79 251.87 633.28 255.04 633.28 245.32 647.37 245.27"/><polygon class="cls-29" points="647.37 245.26 600.71 309.17 308.08 279.42 402.68 224.9 464.54 230.05 549.56 237.12 647.37 245.26"/><path class="cls-30" d="M469.19,278c-.61,6.54-26.42,9.49-57.66,6.58S355.47,274,356.08,267.49s26.42-9.49,57.66-6.58S469.8,271.48,469.19,278Z"/><path class="cls-30" d="M568.65,250.33c-.78,8.34-28.72,12.55-62.4,9.42s-60.38-12.44-59.6-20.77c.38-4,7.11-7.1,17.77-8.84l85,7.07C561.61,241.14,569.06,245.87,568.65,250.33Z"/><path class="cls-30" d="M356.78,273.91c0,1.53-5.08,2.77-11.34,2.77s-11.34-1.24-11.34-2.77,5.08-2.76,11.34-2.76S356.78,272.39,356.78,273.91Z"/><path class="cls-30" d="M599,293.72c0,3.89-13.58,7-30.33,7s-30.32-3.16-30.32-7,13.57-7.06,30.32-7.06S599,289.82,599,293.72Z"/><ellipse class="cls-30" cx="530.32" cy="280.88" rx="6.79" ry="18.91" transform="translate(215.74 791.93) rotate(-86.29)"/><g class="cls-31"><path class="cls-27" d="M659,313.29a.24.24,0,0,1-.16-.07c-10-10.45-24.6-11-40.08-11.55-11.89-.43-24.18-.88-34.35-6.18a105.11,105.11,0,0,0-73.11-8.31c-22.37,5.8-48.45,4.87-77.54-2.77-10-2.64-19.84-6.56-29.33-10.36-9.89-4-20.11-8.05-30.6-10.68A120.34,120.34,0,0,0,293.94,271a.23.23,0,0,1-.31-.11.23.23,0,0,1,.11-.3,120.77,120.77,0,0,1,80.18-7.67c10.51,2.64,20.75,6.73,30.65,10.7,9.47,3.79,19.27,7.71,29.28,10.34,29,7.62,55,8.55,77.3,2.77a105.58,105.58,0,0,1,73.44,8.34c10.08,5.26,22.32,5.71,34.16,6.14,15.57.56,30.28,1.1,40.39,11.68a.22.22,0,0,1,0,.32A.2.2,0,0,1,659,313.29Z"/><path class="cls-27" d="M568.39,318.32h0a28.68,28.68,0,0,1-6.18-1.23c-.73-.2-1.44-.4-2.14-.57-4.62-1.14-9.38-2.19-14-3.21-8.5-1.89-17.3-3.84-25.7-6.4-2.74-.83-7.81-3.15-9.39-6.55a4.64,4.64,0,0,1-.05-3.94c1.67-3.86,7.24-5.45,10.57-5.58,8.93-.34,18,2.3,26.88,4.86,1.51.44,3,.87,4.49,1.28,4.34,1.21,8.77,2.51,13.06,3.77,5.63,1.65,11.46,3.36,17.12,4.88,11.19,3,28,6.53,44.42,2.34a.22.22,0,0,1,.27.17.23.23,0,0,1-.16.28c-16.56,4.21-33.41.67-44.65-2.35-5.67-1.52-11.49-3.23-17.13-4.88-4.29-1.26-8.72-2.56-13.06-3.77-1.48-.41-3-.84-4.49-1.28-8.79-2.55-17.88-5.17-26.73-4.84-3.88.15-8.76,2.06-10.17,5.31a4.18,4.18,0,0,0,.05,3.56c1.51,3.26,6.62,5.55,9.11,6.31,8.38,2.54,17.16,4.49,25.66,6.38,4.6,1,9.36,2.08,14,3.22.7.17,1.42.37,2.15.57a35.49,35.49,0,0,0,5.09,1.14l.12-.35a4.1,4.1,0,0,1,1,.47.22.22,0,0,1,.08.26A.23.23,0,0,1,568.39,318.32Z"/><path class="cls-27" d="M488.48,274.45c-8.82,0-20.12-1.21-34.6-4.29-12.16-2.59-23.87-7.44-35.2-12.13-6.87-2.84-14-5.79-21.12-8.2-23.14-7.81-42.33-9.46-58.65-5.05a.22.22,0,0,1-.28-.16.23.23,0,0,1,.16-.28c16.41-4.44,35.68-2.78,58.92,5.06,7.15,2.41,14.27,5.36,21.15,8.21,11.3,4.68,23,9.52,35.12,12.1,40.52,8.63,55.53,2.08,60.88-2.59,3.12-2.73,4.07-5.73,3.94-7.48-.39-5.19-12.85-11.81-17.8-13.1-33.41-8.73-53.69-10.43-73.3-12.07-12.18-1-24.78-2.08-40.22-4.85-18.69-3.34-38-6.8-56-14a.23.23,0,0,1,.17-.43c17.92,7.15,37.22,10.6,55.88,13.94,15.42,2.76,28,3.82,40.18,4.84,19.63,1.65,39.93,3.35,73.38,12.09,5.18,1.35,17.73,8,18.14,13.51.15,1.94-.85,5-4.1,7.86C511,271.08,503.22,274.45,488.48,274.45Z"/><path class="cls-27" d="M661,300.78a.23.23,0,0,1-.23-.23,14.41,14.41,0,0,0-5.09-11c-16-14.42-64.68-10.67-79.23-9.18-5.89.6-39.47,1.88-46.45-7a5.71,5.71,0,0,1-.81-5.78c7.11-19.91,57.6-15.65,75.19-11.85,19.45,4.2,38.06,12,56.07,19.56a.23.23,0,0,1,.12.3.22.22,0,0,1-.3.12c-18-7.54-36.58-15.34-56-19.54a167,167,0,0,0-42.1-2.89c-12.81.88-28.87,4.1-32.56,14.45a5.29,5.29,0,0,0,.74,5.35c6.39,8.14,37.74,7.7,46,6.85,18.71-1.93,63.91-4.86,79.59,9.29a14.89,14.89,0,0,1,5.24,11.38A.24.24,0,0,1,661,300.78Z"/><path class="cls-27" d="M465,343.26a.22.22,0,0,1-.22-.16.23.23,0,0,1,.15-.29l31.49-9.76c4-1.25,7.53-2.51,9.75-5.33,3.7-4.71,1.89-11.77-2-15.88-2-2.07-4.84-3-7.62-3.86-2.93-.93-6-1.89-8-4.21-7.26-8.29-27.42-16.9-82.32-10.76-6.64.74-36.05,2-41.24-1.79a1,1,0,0,1-.54-1c.17-1.22,3.09-2.33,7.84-4.05,5.42-2,12.17-4.4,12.55-7.3.14-1-.59-2.14-2.18-3.25-6.4-4.49-25.45-4.61-35.74-2.71-20.37,3.74-33.92.46-45.88-2.43-9.27-2.24-18-4.36-28.81-3.14a.22.22,0,0,1-.25-.2.23.23,0,0,1,.2-.25c10.87-1.23,19.66.89,29,3.14,12.49,3,25.42,6.15,45.69,2.43,10.37-1.91,29.58-1.77,36.09,2.79,1.73,1.22,2.53,2.46,2.37,3.69-.42,3.16-7,5.55-12.85,7.66-3.64,1.32-7.4,2.68-7.55,3.68,0,.07,0,.27.36.55,5.09,3.69,34.31,2.45,40.92,1.71,55.09-6.17,75.39,2.53,82.71,10.91,1.94,2.22,4.91,3.16,7.78,4.07s5.77,1.83,7.81,4c4,4.25,5.88,11.57,2,16.47-2.3,2.92-5.88,4.21-10,5.48l-31.49,9.77Z"/><path class="cls-27" d="M385.35,260.48h-.12a45.09,45.09,0,0,1-7.64-1.24c-1.59-.36-3.23-.73-4.85-1-11.63-1.72-24.33-2.09-35.52-2.42-14.06-.41-24.22-.71-25.81-3.45a1.81,1.81,0,0,1,.07-1.86.23.23,0,0,1,.31-.1.23.23,0,0,1,.09.31,1.41,1.41,0,0,0-.08,1.42c1.47,2.52,12,2.83,25.43,3.22,11.21.33,23.92.7,35.57,2.43,1.64.24,3.29.61,4.89,1a43.66,43.66,0,0,0,7.56,1.23c1.43.07,6.86-.48,7.31-1.84.16-.49-.48-1-1-1.42-7.22-4.86-16-5.7-24.55-6.53l-1.29-.12c-3.72-.36-7.5-.66-11.17-1-5.33-.43-10.85-.86-16.26-1.5a.23.23,0,0,1-.2-.26.23.23,0,0,1,.25-.2c5.4.64,10.92,1.08,16.25,1.5,3.66.29,7.45.59,11.17,1l1.29.13c8.58.82,17.45,1.68,24.76,6.6,1,.68,1.43,1.33,1.23,1.94C392.4,260.14,386.46,260.48,385.35,260.48Z"/><path class="cls-27" d="M679.83,278.68a.23.23,0,0,1-.23-.23c-.06-9.43-7.86-16.79-15.56-19.89-8-3.23-16.8-3.29-26.6-3l-.47,0c-8.85.22-18,.46-26.4-2.5-3.64-1.28-6.8-3.83-8.05-6.51a5.91,5.91,0,0,1-.25-4.74c1.48-3.95,6.4-5,10.52-5.41l47.3-5.07a.23.23,0,0,1,.25.2.23.23,0,0,1-.2.26l-47.31,5.07c-4,.42-8.74,1.39-10.13,5.11a5.45,5.45,0,0,0,.24,4.39c1.2,2.57,4.25,5,7.78,6.27,8.32,2.93,17.43,2.7,26.24,2.47h.47c9.85-.26,18.66-.2,26.78,3.07,7.84,3.16,15.79,10.66,15.85,20.31a.23.23,0,0,1-.23.23Z"/><path class="cls-27" d="M460.52,285.92a101,101,0,0,1-17.15-1.47c-1.59-.27-5.29-1.21-5.36-4a3.82,3.82,0,0,1,2.62-3.38,10.64,10.64,0,0,1,4.32-.39.23.23,0,0,1,.22.24.22.22,0,0,1-.24.21,10.4,10.4,0,0,0-4.14.37,3.36,3.36,0,0,0-2.32,2.94c.06,2.47,3.5,3.33,5,3.58a100.35,100.35,0,0,0,34.27,0c1.24-.22,2.56-.58,3-1.63a2.51,2.51,0,0,0-1.25-3,7.81,7.81,0,0,0-3.61-.77L447,277.12a.22.22,0,0,1-.21-.24.23.23,0,0,1,.24-.21l28.9,1.5a8.22,8.22,0,0,1,3.82.83,3,3,0,0,1,1.43,3.54c-.56,1.24-2,1.65-3.37,1.89A101.49,101.49,0,0,1,460.52,285.92Z"/><path class="cls-27" d="M489.27,260.5A88.85,88.85,0,0,1,475,259.21a79.94,79.94,0,0,1-17.12-4.58c-4.56-1.91-6.92-3.88-6.65-5.54s3.15-2.77,8.08-3.11a90.63,90.63,0,0,1,34.81,5.76c4.56,1.91,6.92,3.88,6.64,5.54h0c-.27,1.67-3.14,2.77-8.07,3.11C491.63,260.46,490.48,260.5,489.27,260.5Zm-26.48-14.17c-1.2,0-2.35,0-3.42.11-4.63.31-7.42,1.31-7.65,2.72s2.08,3.25,6.37,5.05a90.51,90.51,0,0,0,34.59,5.72c4.64-.31,7.43-1.31,7.66-2.72h0c.24-1.42-2.09-3.25-6.37-5a80.19,80.19,0,0,0-17-4.55A89.09,89.09,0,0,0,462.79,246.33Z"/><path class="cls-27" d="M363.6,281.29h-.53c-3.94-.08-8.11-1-8.08-2.63s4.23-2.39,8.18-2.3a21.86,21.86,0,0,1,5.63.77c1.61.5,2.46,1.13,2.44,1.85C371.21,280.5,367.38,281.29,363.6,281.29Zm-1-4.49c-4.22,0-7.13.95-7.15,1.86s3.11,2.07,7.63,2.16,7.69-.91,7.71-1.86h0c0-.47-.79-1-2.12-1.4a21.44,21.44,0,0,0-5.51-.75Z"/><path class="cls-27" d="M534.25,305.26h-.56a21.44,21.44,0,0,1-5.63-.77c-1.62-.49-2.46-1.13-2.45-1.85,0-1.6,4.23-2.39,8.18-2.3a21.44,21.44,0,0,1,5.63.77c1.61.49,2.46,1.13,2.44,1.85h0c0,.72-.88,1.33-2.51,1.75A20.59,20.59,0,0,1,534.25,305.26Zm-1-4.48c-4.22,0-7.13,1-7.15,1.86,0,.47.78,1,2.12,1.4a20.92,20.92,0,0,0,5.51.76,21.53,21.53,0,0,0,5.53-.54c1.35-.35,2.17-.85,2.18-1.32h0c0-.47-.79-1-2.12-1.4a21.41,21.41,0,0,0-5.51-.76Z"/><path class="cls-27" d="M564.87,273.77c-11.12,0-19.84-3.31-19.84-7.55s8.72-7.55,19.84-7.55,19.84,3.31,19.84,7.55S576,273.77,564.87,273.77Zm0-14.65c-10.69,0-19.38,3.19-19.38,7.1s8.69,7.1,19.38,7.1,19.39-3.19,19.39-7.1S575.56,259.12,564.87,259.12Z"/><path class="cls-27" d="M632.14,249.91c-11.57,0-20.63-3.17-20.63-7.22s9.06-7.23,20.63-7.23,20.63,3.17,20.63,7.23S643.71,249.91,632.14,249.91Zm0-14c-11.13,0-20.18,3-20.18,6.77s9,6.76,20.18,6.76,20.17-3,20.17-6.76S643.26,235.92,632.14,235.92Z"/><path class="cls-27" d="M514,240.63c-3.25,0-6.65-.12-10.12-.34-19.66-1.27-34.85-5.67-34.57-10,.14-2.13,4-3.85,10.75-4.86a139.84,139.84,0,0,1,49.36,3.2c6.6,1.88,10.16,4.08,10,6.2s-4,3.85-10.75,4.86A103,103,0,0,1,514,240.63ZM494.78,225a102.31,102.31,0,0,0-14.64.93c-6.45,1-10.23,2.58-10.35,4.44-.25,3.94,15.38,8.3,34.14,9.51a122.93,122.93,0,0,0,24.73-.6c6.46-1,10.23-2.57,10.35-4.43s-3.41-4-9.69-5.73a122.85,122.85,0,0,0-24.45-3.78C501.41,225.06,498,225,494.78,225Z"/></g></g><g id="teacher"><path class="cls-32" d="M386.26,83.28c-4.81,2-9.71,1.15-10.93-1.83-1-2.44.76-5.56,4.07-7.69a14.51,14.51,0,0,1,2.45-1.28,13.69,13.69,0,0,1,5.55-1.06c2.58.08,4.65,1.1,5.39,2.89C394,77.3,391.09,81.31,386.26,83.28Z"/><path class="cls-32" d="M407.62,82l-.24.09c-6.41,2.52-12.57,2.11-13.84-1s2.93-7.86,9.41-10.51c4.85-2,9.81-2.34,12.38-1h0a3.12,3.12,0,0,1,1.7,1.91C418.15,75.42,414.1,79.38,407.62,82Z"/><path class="cls-32" d="M410.72,74.06c-4.41,1.47-8.44,1.3-9-.38s2.56-4.24,7-5.71,8.44-1.3,9,.38S415.13,72.59,410.72,74.06Z"/><path class="cls-33" d="M477.2,173.69c-3.38,19.78-18.55,35.47-37.37,41.56L443,202.82c-10.5,1.89-22,1.93-32.6,1.22-8.82-.58-16.95-1.69-23.21-2.67a125.2,125.2,0,0,1-15-3.26q-3-.84-5.91-1.83l-1.67-.59c-16.2-5.81-29.86-14.88-38.11-26.37-12.15-16.27-13.13-37.51-1-54.91,11.39-16.86,32.78-26.77,53-29.45,1.36-.18,2.73-.33,4.08-.44l1.46-.12c1.23-.08,2.46-.14,3.69-.16,1.71,0,3.42,0,5.12.05h0a84.61,84.61,0,0,1,15.34,2.09,95.19,95.19,0,0,1,52.11,32.67c1.09,1.36,2.16,2.77,3.18,4.22.72,1,1.4,2,2.08,3.07A82.77,82.77,0,0,1,474.26,144C477.56,153.61,478.89,163.8,477.2,173.69Z"/><path class="cls-34" d="M458,156.3a11.09,11.09,0,0,1-12.39,3l-.9.38h0c-1.18-.45-2.32-.94-3.45-1.47-8.6-4-15.76-10-22.85-16.43-.57-.53-1.15-1.07-1.7-1.62-1.71-1.64-3.36-3.37-4.91-5.17-7.67-7.62-.16-19.76,9.91-16.1a11.74,11.74,0,0,1,1.55.35c4.65,2.47,12,7.21,16.57,9.93,2.82,1.75,6.46,3.9,9.88,6,2.19,1.35,4.29,2.68,6,3.89l.42.29A11.27,11.27,0,0,1,458,156.3Z"/><path class="cls-34" d="M477,139.14h0c-1.32,2.43-2.77,4.94-4.28,7.49l-.47.76c-7.5,12.48-18.72,15.13-27.51,12.28h0a20.78,20.78,0,0,1-7.07-3.94c-1.07-.91-1-2.58-.05-4.69,1.79-4.21,6.67-10.14,11.35-15.08.26-.27.51-.54.77-.8,2.42-2.51,4.74-4.7,6.51-6.2,4.92-4.17,10.29-8.19,15-10.42,4.42-2.1,8.28-2.65,10.71-.35C485.26,121.33,482.22,129.51,477,139.14Z"/><path class="cls-35" d="M412.58,184.54l-.52,4.65-.74,6.54L410.4,204c-8.82-.58-16.95-1.69-23.21-2.67a125.2,125.2,0,0,1-15-3.26q-3-.84-5.91-1.83l-1.67-.59c-.78-.29-1.55-.59-2.32-.9a40.31,40.31,0,0,1,4.91-9.16,35.31,35.31,0,0,1,4.9-5.64l.31-.26L400,183l9.4,1.13Z"/><path class="cls-36" d="M412.58,184.54l-.52,4.65-.74,6.54c-1.58-2.4-9.38-4-17.28-4.56-7.37-.51-14.84,0-17.43,1.65a11.23,11.23,0,0,0-4.4,5.29q-3-.84-5.91-1.83l-1.67-.59c-.78-.29-1.55-.59-2.32-.9a40.31,40.31,0,0,1,4.91-9.16,35.31,35.31,0,0,1,4.9-5.64l.31-.26L400,183l9.4,1.13Z"/><path class="cls-37" d="M391.66,197.23l-.08,0a.21.21,0,0,1-.13-.28c.32-.8,3.1-7.81,3.61-8.44a.22.22,0,0,1,.31,0,.21.21,0,0,1,0,.3c-.36.43-2.31,5.21-3.54,8.32A.23.23,0,0,1,391.66,197.23Z"/><path class="cls-34" d="M426.21,121.22s-3.18,24-5.51,45.37h0a.75.75,0,0,1,0,.12c-.13,1.16-.25,2.31-.37,3.45-.61,5.76-1.14,11.21-1.5,15.8,0,0,0,0,0,0-.24,2.92-12.22,4.76-26.86,4.12-11.5-.5-21.25-2.38-24.87-4.58,0,0,0,0,0,0a4.58,4.58,0,0,1-2.09-1.82c-1.63-2.68-.21-6.58,3.18-9.19-.26-1.62-.52-3.21-.77-4.8-2.75-17-5.23-32.38-8.28-47.56C380,107.22,409.89,109.15,426.21,121.22Z"/><path class="cls-38" d="M416.88,71.76a.21.21,0,0,1-.2-.13A2.84,2.84,0,0,0,415,70.12c-2.22-.8-5.52.12-5.73.22a.2.2,0,0,1-.29,0,.26.26,0,0,1,0-.33,11.35,11.35,0,0,1,5.28-.52,3.54,3.54,0,0,1,2.82,2,.22.22,0,0,1-.11.29Z"/><path class="cls-34" d="M375.46,134.39c-4.06,3.8-8.08,7.8-12,11.87-3.78,3.91-7.51,7.89-11.14,11.87-1.41,1.53-2.78,3.06-4.15,4.58-9.48,10.37-24.95-2-17-13.53a109.67,109.67,0,0,1,7.26-8.7c7.66-8.22,15.91-15.74,25.68-21.45C374.19,113.45,383.79,126.53,375.46,134.39Z"/><path class="cls-34" d="M389.09,162.83c0,2.13-1.87,4.32-4.87,6.26-5.75,3.7-15.64,6.44-24.41,5.87-19.39-1.26-34.17-8.38-30.78-21.14.15-.55.34-1.12.55-1.71a0,0,0,0,0,0,0c2.2-5.79,26.31-2.52,36.18-1.35C379,152.32,389.09,156.64,389.09,162.83Z"/><path class="cls-39" d="M407.62,82l-.45.18-1.9-1.13-5.57-2.77-2.88-1.66a30.38,30.38,0,0,0,11.85-.35c6.15-1.54,7.85-5.64,6.66-6.69h0a3.12,3.12,0,0,1,1.7,1.91C418.15,75.42,414.1,79.38,407.62,82Z"/><path class="cls-40" d="M402.75,113c1.49,5.6,1.69,11.54-7.08,12.75-5.55.77-11-1.92-12.5-7.52A10.14,10.14,0,1,1,402.75,113Z"/><path class="cls-40" d="M399.43,123.44c.36,1.44-.5,5.7-1.83,5.7s-6.52-4.14-6.52-5.7,1.87-2.82,4.17-2.82A4,4,0,0,1,399.43,123.44Z"/><path class="cls-41" d="M400.52,90.84V112.6c-.45,6.46-3.92,9.73-4.55,10.2l-13.88-.13V90.84Z"/><path class="cls-42" d="M400.52,102.84v8.37c-6.87,0-10.75-5.63-10.44-7.57S395.16,102.81,400.52,102.84Z"/><path class="cls-41" d="M401.65,108.08a9.63,9.63,0,0,1-2.1.39c-5.69.39-11.34-4-12.86-9.36l-5.62-20,12.56-3.81a11.07,11.07,0,0,1,11.61,3.46c4.14,4.93,3,12.5,3.48,18.45A10.55,10.55,0,0,1,401.65,108.08Z"/><path class="cls-32" d="M410.59,67.43v0c-.27.47-5.54,10-8.27,8.84-3.58-1.48-9.81-2.74-13.08,2.7a11.84,11.84,0,0,0-1.32,4,43.75,43.75,0,0,0-.28,9.85c0,.55.08.88.08.88l-5-1.28-.34-.62-4.49-8,0,0L380,77.19l3.85-1.85a1.89,1.89,0,0,1-.19-.3c-1.17-2.33,2.93-6.79,9.19-10s12.28-3.84,13.46-1.51c.45.86.15,2-.71,3.3h0l0,0a5,5,0,0,1-.37.51h0C404.19,69.1,410.59,67.43,410.59,67.43Z"/><path class="cls-39" d="M387.64,92.84,380.23,92l-2.37-8.16A27,27,0,0,0,387.92,83,43.75,43.75,0,0,0,387.64,92.84Z"/><path class="cls-41" d="M385.87,90.26c2.57,1.61,3.58,4.63,2.25,6.75s-4.48,2.52-7.05.91-3.58-4.64-2.25-6.75S383.31,88.65,385.87,90.26Z"/><path class="cls-43" d="M363.41,146.26c-1.21,1.26-2.41,2.51-3.61,3.78-2.67-.25-5.21-.39-7.46-.42a57.52,57.52,0,0,0,7.83-13A74.92,74.92,0,0,1,363.41,146.26Z"/><path class="cls-23" d="M382.42,96a.19.19,0,0,1-.12,0,2.88,2.88,0,0,1-1.23-1.51,2.08,2.08,0,0,1,.17-1.75,2.45,2.45,0,0,1,3.4-.47.21.21,0,0,1,.07.3.21.21,0,0,1-.3.07,2,2,0,0,0-2.8.33,1.61,1.61,0,0,0-.12,1.38,2.5,2.5,0,0,0,1,1.29.21.21,0,0,1,.07.3A.22.22,0,0,1,382.42,96Z"/><path class="cls-39" d="M384.56,71.66a19.32,19.32,0,0,0-1.42,2,20,20,0,0,0-3.74.14,14.51,14.51,0,0,1,2.45-1.28A15.2,15.2,0,0,1,384.56,71.66Z"/><path class="cls-40" d="M389.89,169.51h0c-.82,0-1.92-3.36-2.49-7.6s-.37-7.88.44-8,1.95,3.28,2.53,7.58S390.7,169.39,389.89,169.51Z"/><path class="cls-40" d="M486.9,122.53h0c-.5.58-3.47-.91-6.67-3.34s-5.41-4.89-5-5.53h0c.47-.61,3.46.88,6.68,3.34S487.36,121.92,486.9,122.53Z"/><path class="cls-43" d="M420.32,170.17c-.61,5.76-1.14,11.21-1.5,15.8,0,0,0,0,0,0-.24,2.92-12.22,4.76-26.86,4.12-11.5-.5-21.25-2.38-24.87-4.58,0,0,0,0,0,0a4.58,4.58,0,0,1-2.09-1.82c-1.63-2.68-.21-6.58,3.18-9.19-.26-1.62-.52-3.21-.77-4.8l5.54-3.13c4.23,7.51-1.38,9.26-.85,13.12,1,7,21.94,9.68,36.53,4.72C419.66,180.68,419.39,174.14,420.32,170.17Z"/><path class="cls-41" d="M491.83,108.14l-1.7,5.57c-.3,2.6-1.37,4.54-4.14,4.45l-1.22-.14a0,0,0,0,0,0,0c-.16.29-1.36,2.61-2.4,4.62-.8,1.55-1.5,2.91-1.55,3s-8.74-7.12-8.74-7.12l.62-1,2.49-3.89,3.61-5.64,2.59-1.19a16.32,16.32,0,0,0,4.71-3.43Z"/><path class="cls-41" d="M477.32,114.27c-1.29-3.47,1-7.73,1.54-11.24a24.14,24.14,0,0,0,.55-5.76c0-1.25,1.66-1.07,2.54.62,1,1.85,1,4.65.94,6.88.13,3.38.23,6.15.5,9.54a2.81,2.81,0,1,1-5.6,0Z"/><path class="cls-41" d="M481.8,105.58a63.33,63.33,0,0,1,4.94-6,3,3,0,0,1,1.54-.91l7.7-3.1c1.34,0,.17,2.62-1.23,3.16s-5.42,2.67-5.42,2.67a25.63,25.63,0,0,1-2.44,2.85,12.53,12.53,0,0,0-2.19,2.89,1.65,1.65,0,1,1-2.9-1.56Z"/><path class="cls-41" d="M489.15,111.73l3.11-3.53.33,1.92-1.64-.84a1.29,1.29,0,0,1,1.18-2.3l.05,0,1.6.93,0,0a1.24,1.24,0,0,1,.45,1.69,1.06,1.06,0,0,1-.16.21L490.39,114c-1.08,1.16-2.49-.58-1.24-2.26Z"/><path class="cls-41" d="M486.38,109.66l3.85-4.25.38,2.24-1.8-1.2a1.27,1.27,0,0,1,1.22-2.22l2,.88a1.36,1.36,0,0,1,.69,1.79c.11.07-4.87,5.39-5,5.56-1.32,1.44-2.62-1.33-1.33-2.8Z"/><path class="cls-41" d="M484.45,107.74l3.57-4.83.62,2.19-1.82-.91a1.27,1.27,0,0,1,.94-2.35l1.94.59a1.36,1.36,0,0,1,.63,2.19L486.14,110c-1.14,1.49-2.78-.74-1.69-2.27Z"/><path class="cls-42" d="M484.77,118c-.16.29-1.36,2.61-2.4,4.62l-9.67-5.08,2.49-3.89a17,17,0,0,0,7.46,3.91C483.35,117.77,484.06,117.92,484.77,118Z"/><path class="cls-40" d="M398,190.47l-.1,0a.22.22,0,0,1-.1-.29c0-.1,4.56-10.16,3.68-34.28S395,123.51,395,123.43a.21.21,0,0,1,.05-.3.22.22,0,0,1,.3.05c.06.09,5.65,8.43,6.54,32.68s-3.67,34.38-3.72,34.48A.21.21,0,0,1,398,190.47Z"/><path class="cls-40" d="M407.72,149.84a59.45,59.45,0,0,1-.14,25.75,115.75,115.75,0,0,1-8-23.92c-3-13.68-5.25-25-3-25.45S404.65,136.17,407.72,149.84Z"/><path class="cls-43" d="M472.72,146.65l-.47.76c-7.5,12.48-18.72,15.13-27.51,12.28h0a20.68,20.68,0,0,1-3.45-1.47A79.84,79.84,0,0,1,423,145.87a47.35,47.35,0,0,1,2.26-8.46,53.54,53.54,0,0,0,12.31,13.65c4.32,3.23,9.51,5.66,15.37,5.72a23.86,23.86,0,0,0,5-.48A24.8,24.8,0,0,0,472.72,146.65Z"/><path class="cls-43" d="M475.18,121.2c-3.42-2.56-11.5,5.31-15.06,14.38-1.89,4.81-4.27,6.3-6.09,6.63-.88-4.08-2.79-6.13-4.2-7.14,2.39-2.46,4.67-4.61,6.41-6.09,4.92-4.17,10.29-8.19,15-10.42Z"/><path class="cls-44" d="M486.9,122.54l-4.79,5.64c-.5.6-3.41-1-6.5-3.64s-5.21-5.2-4.71-5.78l0,0,4.3-5c-.43.64,1.79,3.1,5,5.53s6.17,3.92,6.67,3.34Z"/><path class="cls-44" d="M395.54,122.74c-3,.1-6.77,2.5-9.27,4.43-.67.52-1.25,1-1.71,1.4a10.81,10.81,0,0,1-5.47-6.55v0c-.95-2.57-1.6-9.13,3-16.2a33.17,33.17,0,0,0,.43,4.79C383.25,114.89,385.57,123,395.54,122.74Z"/><path class="cls-43" d="M384.22,169.09c-5.75,3.7-15.64,6.44-24.41,5.87-19.39-1.26-34.17-8.38-30.78-21.14-.55,2.67-.49,7.93,6.84,12.06,10.28,5.76,36.12-6.22,44.82-2.92C384.3,164.33,384.83,166.74,384.22,169.09Z"/><path class="cls-44" d="M404.77,126.88c-.11-.07-1-.82-2.14-1.5a20.41,20.41,0,0,0-7.77-2.58s6.16-2.92,5.66-12.81v-1.58c3.14,1.8,5.09,5.1,6.15,8.43A10.53,10.53,0,0,1,404.77,126.88Z"/><polygon class="cls-45" points="373.54 147.86 373.44 152.08 392.15 156.34 429.82 155.12 429.89 150.89 422.74 150.35 410.16 150 380.46 148.88 373.54 147.86"/><path class="cls-3" d="M392.48,151.64a114.63,114.63,0,0,1,14-1,22.54,22.54,0,0,1,5.17.93s1-1.05,6-1c3.25,0,12.18.27,12.18.27l-12.36-2.15A64.78,64.78,0,0,0,405,147a29.71,29.71,0,0,0-5.45.51,52.59,52.59,0,0,0-8.78-.58c-3.48.21-17.24.91-17.24.91Z"/><path class="cls-45" d="M412.4,152.71a.16.16,0,0,1-.16-.16c0-1.77-9.2-4.19-12.74-5a.16.16,0,0,1-.12-.19.17.17,0,0,1,.19-.12c1.33.3,13,3,13,5.29a.16.16,0,0,1-.16.16Z"/><path class="cls-41" d="M407.37,155.91,406,164.26l-13.29-1.13-1.37.32-2.84.65h0l-5.24,1.22c-1.15.27,2.23-10.23,2.23-10.23l3.07-.55,6.36-1.14,2.57,1.23C400.17,156,407.37,155.91,407.37,155.91Z"/><path class="cls-41" d="M388.65,156a29.86,29.86,0,0,1,9.67-6.35c1.91-.75,4.61-.84,6.55-1,1.21-.14,1.32,1.1.56,2s-3.33,1.19-3.33,1.19c-.57.4-2.72,2.8-3.31,3.34-1.91,1.8-3.79,3.91-5.54,5.88a3.09,3.09,0,1,1-4.21-4.48Z"/><path class="cls-41" d="M400.67,155.8c2.29-.09,5.61-.09,7.93-.12l-.69.21c1-.65,2.8-1.67,3.77-2.28a18.19,18.19,0,0,0,2.93-2.7c.8-.89,2.49-.46,1.86.58l-1.68,2.15a13.32,13.32,0,0,1-3.61,3.17c-.73.44-2,1.56-2.54,1.48-2.33,0-5.63.15-7.92.14a1.32,1.32,0,0,1-.05-2.63Z"/><path class="cls-41" d="M401.06,157.91l7.92-.12-.69.21c2-1.66,4.74-2.67,6.35-4.69a16.68,16.68,0,0,1,2-2.42c.54-.52,1.85-.29,1.73.06-.71,2-2,5-3.82,6.19-1.57,1.07-3.16,2.09-4.8,3.05a1.27,1.27,0,0,1-.7.21l-7.92.13a1.31,1.31,0,0,1,0-2.62Z"/><path class="cls-41" d="M400.8,160.16l7.92-.13-.67.2,4.82-2.66-.39.45,1.34-2.68a.86.86,0,0,1,1.57.69l-1.06,2.8a.89.89,0,0,1-.39.46l-4.51,3.16a1,1,0,0,1-.6.2h-.07l-7.92.12a1.31,1.31,0,0,1,0-2.61Z"/><path class="cls-41" d="M400.85,161.07c2.34.19,4.67.52,7,.86a.91.91,0,0,0,.76-.29c.25-.19,1.65-1.17,1.93-1.37l2.81-1.84c.63-.46,1.87-.16,1.33.4-1.25,1.26-3.6,3.93-4.88,5.09-1,.87-2.38.64-3.64.5q-2.81-.27-5.61-.7a1.34,1.34,0,0,1,.32-2.65Z"/><path class="cls-41" d="M401.28,152.54s-1.25,1.68-.78,2.46,4.31.72,4.31.72l-1.89,3.48-6.69-1.39.46-4.7Z"/><path class="cls-42" d="M391.29,163.45l-2.84.65h0l-5.24,1.22-1.73-7.24-.34-1.4.25-.3.5-.61,6.62-1.23A13.54,13.54,0,0,0,391.29,163.45Z"/><path class="cls-44" d="M389.85,169.51l-7.88.64c-.82.07-1.79-3.39-2.15-7.7s0-7.9.82-7.95h.06l7.1-.56c-.81.1-1,3.68-.44,8S389,169.51,389.85,169.51Z"/><path class="cls-23" d="M402.62,96h-.07l-2.08-.09a.21.21,0,0,1-.2-.23.21.21,0,0,1,.22-.21l2.08.09a1.12,1.12,0,0,0,1-.54,1.15,1.15,0,0,0,0-1.16l-2.2-4a.21.21,0,0,1,.08-.29.21.21,0,0,1,.3.08l2.2,4a1.54,1.54,0,0,1,0,1.59A1.56,1.56,0,0,1,402.62,96Z"/><path class="cls-24" d="M395,90.83a1.17,1.17,0,1,0,2.25,0c0-.83-.5-1.5-1.12-1.5A1.34,1.34,0,0,0,395,90.83Z"/><path class="cls-24" d="M404.93,90.83a1.35,1.35,0,0,0,1.11,1.5c.63,0,1.13-.66,1.14-1.48s-.5-1.5-1.12-1.5A1.34,1.34,0,0,0,404.93,90.83Z"/><path class="cls-24" d="M393,89.67a.2.2,0,0,1-.18-.1.21.21,0,0,1,.07-.3,14.61,14.61,0,0,1,3.86-1.65.22.22,0,0,1,.23.2.22.22,0,0,1-.19.24,13.93,13.93,0,0,0-3.67,1.58A.27.27,0,0,1,393,89.67Z"/><path class="cls-24" d="M403.17,90a.23.23,0,0,1-.18-.09.21.21,0,0,1,.05-.3,12.14,12.14,0,0,1,3-1.65.21.21,0,0,1,.25.17.22.22,0,0,1-.17.26,12.12,12.12,0,0,0-2.78,1.57A.22.22,0,0,1,403.17,90Z"/><path class="cls-46" d="M403,98.75a1.67,1.67,0,0,1-1,1.26,3.6,3.6,0,0,1-4-.43c-.89-.69-1.79-2.09-1.49-1.94a9.93,9.93,0,0,0,3.69.7C403.15,98.31,403,98.75,403,98.75Z"/><path class="cls-47" d="M390.26,86.72c.12-2.23,2.29-3.77,4.29-4.22a5.62,5.62,0,0,1,2-.14.77.77,0,0,1,.25,1.45c-2,1-4.35,1.21-5.77,3.13a.42.42,0,0,1-.78-.22Z"/><path class="cls-47" d="M402.21,82.71c2.25-1,6.07,0,6.28,2.85l-1.33.59a4.38,4.38,0,0,0-2-1.58c-.84-.4-1.88-.69-2.93-1.07a.42.42,0,0,1,0-.79Z"/><path class="cls-48" d="M402,100a3.6,3.6,0,0,1-4-.43h.56A12.62,12.62,0,0,1,402,100Z"/><path class="cls-40" d="M380.23,155.1A.24.24,0,0,1,380,155s-1-1.87-11.19-3.55c-3-.49-6-.88-9.05-1.14-2.65-.25-5.15-.39-7.45-.42-4.69-.09-8,.25-8.86.92a.22.22,0,0,1-.27-.34c1.3-1,6.29-1.07,9.14-1,2.3,0,4.82.18,7.48.42,3,.27,6.08.66,9.08,1.15,10.47,1.72,11.45,3.62,11.53,3.83a.21.21,0,0,1-.13.28Z"/><path class="cls-40" d="M362.83,175.35a34.39,34.39,0,0,1-4.47-.28.21.21,0,0,1-.19-.24.22.22,0,0,1,.24-.19A39.44,39.44,0,0,0,381.86,170a.21.21,0,0,1,.3.07.22.22,0,0,1-.07.3A40.25,40.25,0,0,1,362.83,175.35Z"/><path class="cls-40" d="M364.22,150.65a.21.21,0,0,1-.21-.19,34.85,34.85,0,0,0-.7-3.71A76.13,76.13,0,0,0,360,136.7c-1.18-2.91-2.16-4.95-2.17-5a.22.22,0,0,1,.39-.19s1,2.07,2.18,5a76.63,76.63,0,0,1,3.37,10.12,35.93,35.93,0,0,1,.7,3.75.22.22,0,0,1-.19.25Z"/><path class="cls-40" d="M422.73,149.1h0a.21.21,0,0,1-.2-.23c0-.92.14-1.91.3-3a46.67,46.67,0,0,1,2.27-8.5c.26-.75.5-1.36.66-1.8s.24-.61.25-.67a.23.23,0,0,1,.25-.18.23.23,0,0,1,.18.25,6.91,6.91,0,0,1-.27.76c-.16.43-.4,1-.66,1.78a46.83,46.83,0,0,0-2.25,8.42c-.16,1.11-.26,2.08-.3,3A.22.22,0,0,1,422.73,149.1Z"/><path class="cls-40" d="M454.41,145a.23.23,0,0,1-.22-.2,18.79,18.79,0,0,0-.37-2.53c-.86-4-2.71-6-4.11-7a5.69,5.69,0,0,0-1.64-.84.22.22,0,1,1,.1-.42,5.89,5.89,0,0,1,1.79.9c1.46,1.05,3.4,3.15,4.29,7.27a21.36,21.36,0,0,1,.38,2.58.22.22,0,0,1-.2.24Z"/><path class="cls-23" d="M485.34,110.71a1.25,1.25,0,0,1-.92-.41,2.36,2.36,0,0,1-.48-2c.19-.93,2.45-3.92,2.71-4.26a.21.21,0,0,1,.31,0,.22.22,0,0,1,0,.3,22.38,22.38,0,0,0-2.63,4.09,1.94,1.94,0,0,0,.37,1.59.81.81,0,0,0,.73.26c.63-.08,3.26-3.67,4.92-6.19a.21.21,0,0,1,.3-.06.22.22,0,0,1,.07.3c-.69,1-4.17,6.24-5.23,6.39Z"/><path class="cls-23" d="M486.8,113.09a1.18,1.18,0,0,1-.77-.32,2.13,2.13,0,0,1-.25-2.67.22.22,0,1,1,.38.21c0,.06-.75,1.36.15,2.13.51.43.94.16,1.55-.48.31-.32,4.42-4.87,4.47-4.92a.21.21,0,0,1,.3,0,.22.22,0,0,1,0,.31c-.17.19-4.16,4.61-4.47,4.93A2.17,2.17,0,0,1,486.8,113.09Z"/><path class="cls-23" d="M489.58,114.6a1,1,0,0,1-.65-.24,1.76,1.76,0,0,1-.39-1.92,21.34,21.34,0,0,1,2.84-3.57.23.23,0,0,1,.32,0,.2.2,0,0,1,0,.28l0,0A18.56,18.56,0,0,0,489,112.6a1.29,1.29,0,0,0,.26,1.42.68.68,0,0,0,.87,0,.21.21,0,0,1,.3.06.22.22,0,0,1-.06.3A1.39,1.39,0,0,1,489.58,114.6Z"/><path class="cls-23" d="M482.66,115.88a.2.2,0,0,1-.17-.09.2.2,0,0,1,0-.3c1.07-.8,1.29-3,.62-6.4a18.17,18.17,0,0,1-.32-3.59,9.56,9.56,0,0,0-.09-1.45.21.21,0,1,1,.42-.08,9.47,9.47,0,0,1,.1,1.53,19.83,19.83,0,0,0,.31,3.51c.72,3.61.46,5.91-.78,6.83A.2.2,0,0,1,482.66,115.88Z"/><path class="cls-23" d="M406.4,159.42a.22.22,0,0,1-.22-.19.22.22,0,0,1,.19-.24l3.09-.37a14.46,14.46,0,0,0,3.66-2.9,14.19,14.19,0,0,0,3.28-4.89.22.22,0,0,1,.42.13,17.42,17.42,0,0,1-7.21,8.07h-.06l-3.12.38Z"/><path class="cls-23" d="M406.68,161.6a.21.21,0,0,1-.22-.21.22.22,0,0,1,.21-.23,11.12,11.12,0,0,0,3.39-.62,50.81,50.81,0,0,0,5.06-4.17.22.22,0,0,1,.31.31,51.23,51.23,0,0,1-5.17,4.25,11.08,11.08,0,0,1-3.58.67Z"/><path class="cls-23" d="M407.25,163.18h-.44a.21.21,0,0,1-.2-.23.26.26,0,0,1,.23-.21,9.18,9.18,0,0,0,3.28-.44c1.61-.68,4.22-4.1,4.25-4.14a.22.22,0,0,1,.3,0,.21.21,0,0,1,0,.31c-.11.14-2.71,3.55-4.42,4.27A8.52,8.52,0,0,1,407.25,163.18Z"/><path class="cls-38" d="M379.5,84.23a4.73,4.73,0,0,1-4-2.07.22.22,0,0,1,.08-.3.23.23,0,0,1,.3.08,4.32,4.32,0,0,0,4.45,1.8.22.22,0,0,1,.25.18.22.22,0,0,1-.19.25A6.41,6.41,0,0,1,379.5,84.23Z"/><path class="cls-38" d="M382.54,75h-.06a.22.22,0,0,1-.15-.26,5.28,5.28,0,0,1,.63-1.25,17.14,17.14,0,0,1,1.43-2,18.35,18.35,0,0,1,4.44-4,.22.22,0,0,1,.3.07.21.21,0,0,1-.07.3,17.82,17.82,0,0,0-4.33,3.92,15.68,15.68,0,0,0-1.4,1.94,4.93,4.93,0,0,0-.58,1.12A.22.22,0,0,1,382.54,75Z"/><path class="cls-39" d="M410.59,67.43v0c-3.34,1-5.6,3.68-6.33,2.13-.35-.75,1.15-2.48,1.32-2.67a5,5,0,0,1-.37.51h0C404.19,69.1,410.59,67.43,410.59,67.43Z"/></g><g id="things"><ellipse class="cls-3" cx="533.73" cy="279.79" rx="17.63" ry="8.42"/><path class="cls-49" d="M547,279.79c0,2.91-5.93,5.27-13.24,5.27s-13.25-2.36-13.25-5.27,5.93-5.28,13.25-5.28S547,276.87,547,279.79Z"/><path class="cls-50" d="M523.86,278.42a8.21,8.21,0,0,1-2.06-.27c-3-.79-4.94-3-4.41-5s3.29-3,6.29-2.19,4.93,3,4.41,5a3.27,3.27,0,0,1-2.42,2.21A6.24,6.24,0,0,1,523.86,278.42Zm-2.25-6c-1.36,0-2.36.5-2.53,1.16-.24.9,1,2.3,3.16,2.86a5.48,5.48,0,0,0,2.92,0,1.65,1.65,0,0,0,1.24-1c.24-.9-1-2.3-3.16-2.86A6.55,6.55,0,0,0,521.61,272.44Z"/><path class="cls-51" d="M537.65,280.1c0,1.14-2.77,2.06-6.2,2.06s-6.21-.92-6.21-2.06,2.78-2.05,6.21-2.05S537.65,279,537.65,280.1Z"/><path class="cls-52" d="M544.92,270.05a1.62,1.62,0,0,1,0,.22,3,3,0,0,1-1,1.86,5,5,0,0,1-.49.4c-1.94,1.45-5.53,2.41-9.64,2.41s-7.78-1-9.71-2.46c-.18-.14-.33-.27-.48-.41a2.83,2.83,0,0,1-1-2h0l.06-.43a.15.15,0,0,1,0-.06c.56-2.46,5.32-4.39,11.12-4.39,5.6,0,10.23,1.8,11,4.15A2.1,2.1,0,0,1,544.92,270.05Z"/><path class="cls-3" d="M544.93,271.32a10.68,10.68,0,0,1-8.74,10,11.61,11.61,0,0,1-2.78.24c-6.19-.19-11.06-5.06-10.89-10.89,0-.2,0-.4,0-.6,0,1.4,1.35,2.67,3.52,3.56a20.58,20.58,0,0,0,7.66,1.33c6,0,10.91-2.07,11.17-4.67C544.93,270.62,544.94,271,544.93,271.32Z"/><path class="cls-50" d="M536.19,281.3a11.61,11.61,0,0,1-2.78.24c-6.19-.19-11.06-5.06-10.89-10.89,0-.2,0-.4,0-.6,0,1.4,1.35,2.67,3.52,3.56C526.24,277.06,529.71,281.41,536.19,281.3Z"/><path class="cls-53" d="M543.38,272.53c-1.93,1.44-5.53,2.41-9.64,2.41a21.69,21.69,0,0,1-7-1.08,9.46,9.46,0,0,1-2.7-1.39c.37-2.09,4.56-3.74,9.67-3.74a21.32,21.32,0,0,1,4.47.46C541.11,269.82,543.16,271.07,543.38,272.53Z"/><polygon class="cls-3" points="496.02 266.2 496.02 267.88 457.95 285.1 384.35 271.97 422.28 257.01 492.54 267.39 492.22 265.59 496.02 266.2"/><path class="cls-5" d="M422.28,255.26l73.23,10.4a.59.59,0,0,1,.16,1.12L458,283.34l-73.6-13.13Z"/><path class="cls-2" d="M455.42,266.34l-18-2.41.54-5.14,28.35,4.13a.38.38,0,0,1,.06.74L459,266A8.06,8.06,0,0,1,455.42,266.34Z"/><polygon class="cls-2" points="455.56 281.24 393.13 270.57 415.23 261.65 477.67 271.44 455.56 281.24"/><g class="cls-54"><polygon class="cls-55" points="478.08 274.8 399.28 261.76 399.31 261.54 478.11 274.58 478.08 274.8"/><polygon class="cls-55" points="473.2 277.41 394.4 264.37 394.43 264.15 473.23 277.2 473.2 277.41"/><polygon class="cls-55" points="468.32 280.02 389.52 266.98 389.55 266.77 468.35 279.81 468.32 280.02"/><polygon class="cls-55" points="439.46 283.25 439.37 283.06 475.02 266.31 475.11 266.51 439.46 283.25"/><polygon class="cls-55" points="428.08 281.86 427.99 281.67 463.64 264.93 463.73 265.12 428.08 281.86"/></g><path class="cls-3" d="M459.1,284,458,285.1l-1.76-1.31.72-.23-71.42-12.73-20.71-46-1-.59,1.26-.7a2.89,2.89,0,0,1,1.73-.34l73.08,10.27a2.94,2.94,0,0,1,2.44,2L458.76,283Z"/><path class="cls-5" d="M440.77,236.7,458,285.1,384.35,272l-20.92-46.44a1.07,1.07,0,0,1,1.1-1.52l73.82,10.75A3,3,0,0,1,440.77,236.7Z"/><path class="cls-3" d="M409.29,251c2.43,1.13,3.76,3.43,3,5.14s-3.41,2.18-5.84,1.05-3.76-3.43-3-5.14S406.86,249.91,409.29,251Z"/><path class="cls-56" d="M356.78,274.23c0,1.23-3.25,2.23-7.25,2.23s-7.24-1-7.24-2.23,2.86-2.1,6.52-2.21h.72a19.58,19.58,0,0,1,4.23.42C355.59,272.83,356.78,273.49,356.78,274.23Z"/><path class="cls-57" d="M359.21,261l-1.12,6.12a0,0,0,0,0,0,0l-1.3,7.07H342.29l-1.29-7L339.85,261c.36,1.09,4.55,1.94,9.68,1.94S358.86,262.12,359.21,261Z"/><path class="cls-58" d="M359.23,260.88l0,.21c-.27,1.16-2.78,2.13-6.25,2.52l-.9.08-.58,0-.67,0c-.22,0-.44,0-.67,0h-1.86c-.62,0-1.23-.07-1.81-.13-.27,0-.53-.05-.78-.09-3.25-.41-5.58-1.35-5.84-2.46l0-.21a1.11,1.11,0,0,1,.19-.58,3,3,0,0,1,1.2-.92h0a3.34,3.34,0,0,1,.38-.17,16.31,16.31,0,0,1,4-1c.47-.06,1-.11,1.5-.15l.54,0,.45,0c.45,0,.92,0,1.39,0h1.3c.42,0,.83,0,1.22.07l.32,0c.41,0,.81.08,1.19.14s.66.1,1,.15c2.11.39,3.71,1,4.36,1.74l0,0a1.12,1.12,0,0,1,.25.43A1,1,0,0,1,359.23,260.88Z"/><path class="cls-59" d="M353.93,253.45a32.29,32.29,0,0,1-.47,5.36,23.62,23.62,0,0,1-1.34,4.87q-1.08.09-2.25.09-.57,0-1.11,0a21.94,21.94,0,0,1-1-5.08c-.11-1.17-.17-2.42-.17-3.73,0-6,1.3-10.61,2.84-10.87C353,243.64,353.93,247.45,353.93,253.45Z"/><path class="cls-59" d="M348.17,252.18c2,4.23,3,7.92,2.33,8.25s-2.88-2.83-4.87-7.06-3-7.93-2.33-8.25S346.18,248,348.17,252.18Z"/><path class="cls-59" d="M354.29,258.68c-2.39,2.84-4.86,4.68-5.52,4.13s.73-3.31,3.11-6.15,4.85-4.68,5.52-4.12S356.67,255.85,354.29,258.68Z"/><path class="cls-60" d="M358.72,260.3c-.4.27-.8.53-1.22.78a24.14,24.14,0,0,1-4.95,2.31l-.9,0c-.81,0-1.65,0-2.53-.06l-.74-.07c-.61-1.06,1.08-3.29,3.95-5.43.7-.53,1.48-1.05,2.3-1.55,4.25-2.55,8.33-3.55,9.12-2.23S362.26,257.92,358.72,260.3Z"/><path class="cls-61" d="M358.08,267.16l-1.3,7.07c0,1.23-3.25,2.23-7.25,2.23s-7.24-1-7.24-2.23l-1.7-9.14,5.71-1.3s-1.05,6.1,2.51,8.23a6,6,0,0,0,3.64.71,4.72,4.72,0,0,0,1.31-.3C355.65,271.7,357.06,269.73,358.08,267.16Z"/><path class="cls-60" d="M351.4,261.61a4.35,4.35,0,0,1-.11,1,3.48,3.48,0,0,1-.18.62.85.85,0,0,1-.1.19,1.14,1.14,0,0,1-.19.34s0,0,0,0a2.12,2.12,0,0,1-.34.39l-.33-.38h-1.05c-.43.19-.88.38-1.36.57l-.3.11a7.54,7.54,0,0,1-1.74-.92,10.2,10.2,0,0,1-1.27-1,16.63,16.63,0,0,1-2.77-3.28l0-.06a17,17,0,0,1-1.85-3.76c-.92-2.76-.76-5.16.64-6.07.94-.61,2.26-.45,3.69.33a12.63,12.63,0,0,1,3.54,3A17.86,17.86,0,0,1,349,254.5c.25.38.48.77.69,1.16a15.53,15.53,0,0,1,1.07,2.33.76.76,0,0,1,0,.11c.1.28.19.55.26.82l0,.08c.09.35.16.68.22,1A8.38,8.38,0,0,1,351.4,261.61Z"/><path class="cls-59" d="M353,266.27a13.93,13.93,0,0,1-2.48-2.11l-.33-.38h-1.05c-.43.19-.88.38-1.36.57l-1.26-.72c-.66-.36-1.34-.73-2.05-1.1l-.92-.45c-1.37-.67-2.52-1.27-3.49-1.79l-.53-.31c-3.07-1.73-3.94-2.75-4-3.83,0-.77,1.06-1.7,4.25-.72a27.31,27.31,0,0,1,5.89,2.77l.21.13.52.32a14.82,14.82,0,0,1,1.5,1.14c.23.19.46.39.67.59l.5.48a.1.1,0,0,1,0,.05c.47.46.91.95,1.32,1.43l.44.54a4.19,4.19,0,0,0,.26.33c.05.07.09.14.14.2l.22.3h0A12.16,12.16,0,0,1,353,266.27Z"/><path class="cls-60" d="M364.4,268.22c-.95,1.7-5.31,2.26-10.84-.65a10.73,10.73,0,0,1-1.09-.64,13.91,13.91,0,0,1-2.47-2.11l-.34-.38,0,0-.26-.33,0,0-.39-.54a6.74,6.74,0,0,1-.68-1.23l0-.12a1.89,1.89,0,0,1-.14-1.1.35.35,0,0,1,0-.11,1.47,1.47,0,0,1,.66-.72,3,3,0,0,1,.57-.27l.14-.05a6.14,6.14,0,0,1,.68-.17l.25-.05.15,0a11,11,0,0,1,2.39-.05l.59.05a14.27,14.27,0,0,1,3.56.88c.38.15.74.3,1.08.46l.52.24C364.34,263.94,365,267.09,364.4,268.22Z"/><path class="cls-60" d="M351.29,262.6a3.73,3.73,0,0,1-.44.29c-.28.17-.57.33-.91.5l-.08,0-.7.32-.07,0c-.43.19-.88.38-1.36.57l-.3.11c-.73.29-1.52.57-2.32.84-4,1.39-8.53,1.23-9.54-.12-.78-1-.22-3.47,3.91-5.2a18,18,0,0,1,1.73-.61h0l.28-.08a.7.7,0,0,1,.14,0,15.4,15.4,0,0,1,4.73-.6,11.76,11.76,0,0,1,1.38.13,10.31,10.31,0,0,1,1.05.2,9.21,9.21,0,0,1,1,.31l.09,0a2.89,2.89,0,0,1,.44.18,4,4,0,0,1,.36.17,3.64,3.64,0,0,1,.55.33,2.56,2.56,0,0,1,.92.91l.07.14C352.42,261.56,352,262.07,351.29,262.6Z"/><polygon class="cls-62" points="546.97 243.03 546.84 246.13 528.8 264.1 473.94 254.96 473.81 252.85 479.26 251.3 496.51 239.48 541 245.36 540.17 244.43 546.97 243.03"/><path class="cls-3" d="M528.66,260.34s-13.59-3.62-21-4.17a16.82,16.82,0,0,0-6.82,1.19,18.74,18.74,0,0,0-8.73-3.58c-4.4-.61-18.25-.93-18.25-.93l22.82-16.57s12.46,1.29,16.48,1.87a15.8,15.8,0,0,1,6,2.12,29.46,29.46,0,0,1,9.14-.59C533,240.14,547,243,547,243Z"/><path class="cls-62" d="M499.76,258.79a.23.23,0,0,1-.14,0,.22.22,0,0,1,0-.31c7.47-9.29,19.64-18.26,19.76-18.35a.21.21,0,0,1,.3,0,.23.23,0,0,1,0,.31c-.13.09-12.24,9-19.68,18.26A.21.21,0,0,1,499.76,258.79Z"/><path class="cls-63" d="M463.89,248.7l-4.11,2L453,236.6h0a1.9,1.9,0,0,1,3.5-1.45,1,1,0,0,1,0,.1Z"/><path class="cls-3" d="M463.89,248.7c.37.82-.27,1.9-1.42,2.41s-2.37.26-2.74-.56.27-1.9,1.42-2.41S463.53,247.88,463.89,248.7Z"/><path class="cls-3" d="M460.15,251.06l2.9,2.15a.57.57,0,0,0,.89-.44l.05-3.48Z"/><path class="cls-64" d="M543.38,272.53c-1.93,1.44-5.53,2.41-9.64,2.41a21.69,21.69,0,0,1-7-1.08,1.78,1.78,0,0,1-.49-1.16c0-2,4.27-3.64,9.55-3.64a22.78,22.78,0,0,1,2.38.13C541.11,269.82,543.16,271.07,543.38,272.53Z"/><path class="cls-65" d="M538.75,270.59c0,.19-.61.34-1.36.34s-1.37-.15-1.37-.34.61-.35,1.37-.35S538.75,270.4,538.75,270.59Z"/><path class="cls-65" d="M531.14,273.05c0,.19-.61.34-1.36.34s-1.37-.15-1.37-.34.62-.35,1.37-.35S531.14,272.86,531.14,273.05Z"/><path class="cls-65" d="M537.11,273.73c0,.18-.42.33-.92.33s-.92-.15-.92-.33.41-.34.92-.34S537.11,273.54,537.11,273.73Z"/><ellipse class="cls-65" cx="531.42" cy="270.77" rx="0.46" ry="0.17"/><path class="cls-65" d="M540.85,272.89c0,.09-.21.17-.46.17s-.46-.08-.46-.17.2-.17.46-.17S540.85,272.8,540.85,272.89Z"/></g><g id="hands"><path class="cls-20" d="M569.39,198c8,5.08,16.09,29.33,18.75,44.91l-26.51,3.87a126.58,126.58,0,0,0-7.9-33.53c-.41-1.1-1.31-3.31-1.76-4.39Z"/><path class="cls-20" d="M488.29,247.32c-7,3.19-18.08-5.54-22-13.1a16,16,0,0,1-.75-13.39s0,0,0,0a13,13,0,0,1,6.06-6.67c6.83-3.53,15.65-.32,19.45,7.29,1.11,2.22,2.17,4.48,3,6.72C497,235.84,497.39,243.18,488.29,247.32Z"/><path class="cls-26" d="M567.68,241.1,547.47,239c7.58-3.56,10.68-11.67,11.85-16.2,0,0,0,0,0,0a26,26,0,0,0,.65-3.18l-.12-.19a22.09,22.09,0,0,1,1.4-4.72C560,221,567.68,241.1,567.68,241.1Z"/><path class="cls-26" d="M488.29,247.32c-7,3.19-18.08-5.54-22-13.1a16,16,0,0,1-.75-13.39c-.19.56-2,7.3,5.37,13.72,7.79,6.75,13.16,6.75,19.39,4.11,3.52-1.49,4.52-6.74,3.78-10.52C497,235.84,497.39,243.18,488.29,247.32Z"/><path class="cls-66" d="M493.05,247.1c-3.55,2.46-7.76,2.74-10.13.87l-.8-.79L482,247c-1.35-1.95-1-4.7.54-7.15a11.92,11.92,0,0,1,3.22-3.28A12.25,12.25,0,0,1,488.8,235a10,10,0,0,1,3.28-.53,6.49,6.49,0,0,1,3.28.88,4.66,4.66,0,0,1,.76.56,4.77,4.77,0,0,1,.7.79C498.84,239.59,497.16,244.26,493.05,247.1Z"/><path class="cls-20" d="M588.31,243.85c.67,7.05-3.87,12.92-25.17,14.66-18.9,1.55-28.26-2.6-30.27-9.39-2.73-9.27,11.2-14,26.51-15.4S587.64,236.8,588.31,243.85Z"/><path class="cls-67" d="M537.55,257.57h.08l-.07,0Z"/><path class="cls-66" d="M538.1,257.4a2,2,0,0,1-.47.16h-.08c-2.12.39-4.93-2.42-6.54-6.69-1.76-4.66-1.42-9.29.75-10.34l1-.21c2,.08,4.56,2.78,6.05,6.73C540.6,251.72,540.26,256.34,538.1,257.4Z"/><path class="cls-68" d="M532.8,240.33l-1,.21A2.09,2.09,0,0,1,532.8,240.33Z"/><path class="cls-21" d="M501.11,238.72s-1.17,4-1.12,4A22,22,0,0,1,496.4,247c-3.69,3.56-8,1.93-11.23-2.42-.32-.42-.63-.87-.92-1.34l-4.07-5.4c1.18-1.18,7.44-4.82,8.79-5.6l.26-.15,0,0,2.42,3.18h0Z"/><path class="cls-22" d="M487,237.79a6.26,6.26,0,0,0-1.8,6.81c-.32-.42-.63-.87-.92-1.34l-4.07-5.4c1.18-1.18,7.44-4.82,8.79-5.6l.3-.1,2.42,3.18h0A9.37,9.37,0,0,0,487,237.79Z"/><path class="cls-21" d="M496.94,237.17l8.84,3.27a1.78,1.78,0,0,1,1.19,1.22l2.58,9.69a1.27,1.27,0,0,1-2.39.83L503.23,243l1.19,1.21L495.55,241a2,2,0,0,1,1.39-3.81Z"/><path class="cls-69" d="M496.57,236.39a5.06,5.06,0,0,0-.76-.55,6.42,6.42,0,0,0-3.28-.88,9.65,9.65,0,0,0-3.28.53,12.26,12.26,0,0,0-3.09,1.55,12,12,0,0,0-3.22,3.29c-1.58,2.45-1.89,5.2-.54,7.15l.17.23-1.32-1.31-1-1c-.12-.14-.23-.29-.33-.43-2.45-3.54-1.1-8.71,3-11.55,3.89-2.7,8.87-2.33,11.46.74Z"/><path class="cls-21" d="M496.19,238.84l6.87,4.06a1.66,1.66,0,0,1,.82.93l3.34,9.68a1.27,1.27,0,0,1-2.33,1l-4.65-9.12.82.94-6.91-4a2,2,0,0,1,2-3.5Z"/><path class="cls-21" d="M494.5,240.18l6.29,3.29a1.76,1.76,0,0,1,1,1.19l2.27,10a1.32,1.32,0,0,1-.82,1.64c-.62.14-1.53-.77-1.75-1.35L498,245.8l1,1.19-6.32-3.21a2,2,0,0,1,1.85-3.6Z"/><path class="cls-21" d="M491.74,241.52l6.34,3a1.69,1.69,0,0,1,1.07,1.3l1.37,8.66c.23,1.51-2.15.86-2.66-.56l-2.55-7.12,1.08,1.3-6.39-3a2,2,0,0,1,1.74-3.66Z"/><path class="cls-21" d="M543.45,253.43l-6.48-.31-.64,0c-2,1.72-3.8,2.17-7.14,2.26l-6.8,0c.07-.06-1.79-9.78-1.79-9.78L531,243.66l2.75-.57,4.18-.88,2.1-.44.71,2.39Z"/><path class="cls-22" d="M537,253.12a8,8,0,0,0,.14-6.25,7,7,0,0,0-3.39-3.78l4.18-.88,2.81,1.95,2.74,9.27Z"/><path class="cls-21" d="M527.14,248.5l-10.9,1.93.55-.19-9.91,4.1c-.65.28-2,.56-2.32-.48-.17-.62.77-1.12,1.3-1.44l9.14-5.71a1.5,1.5,0,0,1,.54-.18l10.87-2a2,2,0,0,1,.73,4Z"/><path class="cls-21" d="M527,249.65c-3.05,1-6.15,1.85-9.26,2.62l.34-.13c-3.66,1.68-7.37,3.25-11.11,4.78-1.68.69-3.25-.71-2-1.52,3.54-2.18,8-5.07,11.66-6.93,3-1,6.1-2,9.22-2.71a2,2,0,0,1,1.13,3.89Z"/><path class="cls-21" d="M528,251.48l-8.35,2.08.57-.24-9.67,5.21c-.61.33-2.19.7-2.63-.28-.26-.59.78-1.5,1.29-1.87l8.9-6.41a1.38,1.38,0,0,1,.56-.24l8.32-2.17a2,2,0,0,1,1,3.92Z"/><path class="cls-21" d="M530.14,254l-7.75,1.38L515.32,259c-.62.33-2.22.44-2.35-.4-.09-.62.41-1,.89-1.41.11,0,7.45-6.05,7.39-5.61l.15,0,8-1.53A2,2,0,0,1,530.14,254Z"/><path class="cls-69" d="M542.79,256.54l-.34.14-.92.17-3.9.71a2,2,0,0,0,.47-.16c2.16-1.06,2.5-5.68.75-10.34-1.49-3.95-4-6.65-6.05-6.73l4.05-.81c2.56-.83,5.84,1.86,7.51,6.28C546.1,250.45,545.4,255.26,542.79,256.54Z"/><path class="cls-23" d="M500.09,252a.21.21,0,0,1-.21-.16l-1.5-5.52a4.13,4.13,0,0,0-3.09-3l-2.2-.45a.22.22,0,0,1-.17-.26.21.21,0,0,1,.26-.17l2.2.46a4.54,4.54,0,0,1,3.42,3.27l1.5,5.52a.23.23,0,0,1-.16.27Z"/><path class="cls-23" d="M503.38,251.5a.24.24,0,0,1-.21-.16L501.44,245a4.33,4.33,0,0,0-2.58-2.89l-1.91-.75a.22.22,0,0,1-.13-.28.23.23,0,0,1,.29-.13l1.91.76a4.76,4.76,0,0,1,2.84,3.18l1.73,6.38a.22.22,0,0,1-.15.27Z"/><path class="cls-26" d="M509.46,209.71a26,26,0,0,1-.42,3.71c-.75,4-2.44,7.22-3.33,10.17-3.71,1.78-7.42,3.58-11.25,5.52a39.13,39.13,0,0,0-3.27-7.63,38.94,38.94,0,0,0,5.12-2A37.42,37.42,0,0,0,509.46,209.71Z"/><path class="cls-23" d="M506.08,250.29a.21.21,0,0,1-.21-.16l-1.62-6.39a3.92,3.92,0,0,0-2.24-2.62l-2.37-1a.22.22,0,0,1-.12-.28.23.23,0,0,1,.29-.12l2.37,1a4.37,4.37,0,0,1,2.49,2.91l1.62,6.39a.22.22,0,0,1-.16.27Z"/><path class="cls-23" d="M505.69,254.92a1.73,1.73,0,0,1-.64-.12,1.24,1.24,0,0,1-.72-.7.92.92,0,0,1,.36-1.07l4.81-3.24a.22.22,0,1,1,.24.36l-4.81,3.24a.48.48,0,0,0-.19.55.79.79,0,0,0,.47.45,1.27,1.27,0,0,0,.94,0,.22.22,0,0,1,.19.39A1.51,1.51,0,0,1,505.69,254.92Z"/><path class="cls-23" d="M505.6,255.19a.24.24,0,0,1-.19-.11.23.23,0,0,1,.08-.3l9.18-5.45a11.55,11.55,0,0,1,4.17-1.35l1.73-.2a.2.2,0,0,1,.24.19.21.21,0,0,1-.19.24l-1.73.21a10.75,10.75,0,0,0-4,1.29l-9.18,5.45A.2.2,0,0,1,505.6,255.19Z"/><path class="cls-23" d="M509.62,256a.23.23,0,0,1-.19-.1.22.22,0,0,1,.07-.3l7.38-4.7a8.7,8.7,0,0,1,3.36-1.17l.27,0,1.12-.14a.22.22,0,0,1,.25.19.23.23,0,0,1-.19.25l-1.12.14-.27,0a8.26,8.26,0,0,0-3.19,1.11L509.73,256A.15.15,0,0,1,509.62,256Z"/><path class="cls-23" d="M514.91,256.57a.23.23,0,0,1-.17-.08.22.22,0,0,1,0-.31l3.49-2.86a7,7,0,0,1,2.53-1.31c1.81-.51,1.81-.5,1.93-.37a.22.22,0,0,1,0,.31.22.22,0,0,1-.17.05c-.06,0-.36.07-1.63.43a6.43,6.43,0,0,0-2.36,1.23l-3.49,2.86A.19.19,0,0,1,514.91,256.57Z"/><path class="cls-70" d="M494.52,229.52a.21.21,0,0,1-.21-.16l0-.09,0-.1a39,39,0,0,0-3.25-7.58c-1.81-3.15-4.91-7.11-9.39-8.07l-.22-.05a.22.22,0,0,1-.14-.28.21.21,0,0,1,.27-.14l.18,0c4.64,1,7.82,5.06,9.68,8.28a39.75,39.75,0,0,1,3.28,7.68l0,.08s0,.08,0,.12a.23.23,0,0,1-.16.27Z"/><path class="cls-70" d="M505.52,224.5h0a.22.22,0,0,1-.16-.27l0-.08c.06-.2.11-.41.18-.61.32-1.07.74-2.16,1.19-3.32a37.43,37.43,0,0,0,2.12-6.83,24.67,24.67,0,0,0,.42-3.68,21.93,21.93,0,0,0-.52-6.09.22.22,0,0,1,.16-.27.22.22,0,0,1,.26.15,21.91,21.91,0,0,1,.53,6.23,24.18,24.18,0,0,1-.42,3.74,37.8,37.8,0,0,1-2.15,6.91c-.44,1.15-.86,2.23-1.18,3.29-.06.19-.11.4-.16.6l0,.08A.22.22,0,0,1,505.52,224.5Z"/><path class="cls-70" d="M543.69,237a.21.21,0,0,1-.2-.15.22.22,0,0,1,.13-.28c.17-.06,16.53-5.58,30.15-3.09a.22.22,0,0,1,.18.25.23.23,0,0,1-.26.18c-13.5-2.47-29.76,3-29.93,3.07Z"/><path class="cls-70" d="M558.6,233.67h0a.23.23,0,0,1-.21-.23c0-.06.16-5.86.73-10.7a.15.15,0,0,1,0-.06l.09-.76c.12-.88.26-1.76.43-2.6a22.38,22.38,0,0,1,1.41-4.73s0-.05,0-.06a6.71,6.71,0,0,1,1.31-2.13.22.22,0,0,1,.3,0,.21.21,0,0,1,0,.31,7,7,0,0,0-1.19,1.95.35.35,0,0,1,0,.06,22.34,22.34,0,0,0-1.39,4.68c-.17.83-.31,1.69-.43,2.56l-.09.78s0,0,0,.06c-.57,4.83-.72,10.59-.72,10.64A.23.23,0,0,1,558.6,233.67Z"/></g><g id="books"><polygon class="cls-71" points="624.26 267.57 586.12 263.01 586.12 240.08 624.26 263.23 624.26 267.57"/><polygon class="cls-71" points="558.23 277.29 593.27 246.73 624.2 267.57 596.37 304.78 558.23 277.29"/><polygon class="cls-72" points="621.34 235.78 621.34 268.6 614.6 277.37 614.6 236.65 621.34 235.78"/><rect class="cls-61" x="584.49" y="240.49" width="30.11" height="35.74"/><path class="cls-72" d="M592.12,233.65l-.8.74,28.08,1.91-.58.61-4.78,5-28.11-2.08-.69-.05-.75.68,30.11,2.41,6.74-7.12Z"/><polygon class="cls-61" points="619.4 236.3 618.82 236.91 614.04 241.94 585.93 239.86 591.32 235.04 591.32 234.39 619.4 236.3"/><polygon class="cls-3" points="621.34 259.14 621.34 265.39 614.6 273.54 614.6 266.47 621.34 259.14"/><polygon class="cls-3" points="618.82 236.91 614.04 241.94 585.93 239.86 591.32 235.04 618.82 236.91"/><polygon class="cls-73" points="617.62 251.28 617.62 277.17 617.01 277.97 617.01 277.97 616.43 277.97 616.43 252.48 612.76 252.33 612.76 283.56 612.16 284.36 612.16 251.28 617.62 251.28"/><polygon class="cls-74" points="612.16 284.36 578.15 281.23 578.15 253.82 612.16 253.82 612.16 284.36"/><polygon class="cls-73" points="617.62 251.26 612.16 257.01 578.15 253.87 584.49 248.19 617.62 251.26"/><polygon class="cls-75" points="617.01 251.87 616.43 252.48 612.76 256.36 580.26 253.49 579.57 253.43 584.75 249.03 617.01 251.87"/><polygon class="cls-3" points="616.43 252.48 612.76 256.36 580.26 253.49 584.75 249.68 616.43 252.48"/><polygon class="cls-3" points="616.43 252.48 616.43 277.97 612.76 282.81 612.76 252.33 616.43 252.48"/><rect class="cls-76" x="571.13" y="258.51" width="32.53" height="36.28"/><polygon class="cls-77" points="610.39 254.09 610.39 284.27 603.67 293.72 603.67 254.01 610.39 254.09"/><polygon class="cls-57" points="610.39 274.93 610.39 279.66 603.67 288.61 603.67 283.51 610.39 274.93"/><polygon class="cls-75" points="606.17 267.86 606.17 293.73 605.8 294.2 604.99 294.11 603.11 296.81 603.11 297.69 602.73 298.19 602.73 267.83 606.17 267.86"/><polygon class="cls-78" points="605.8 268.26 605.8 294.2 604.59 294.08 604.68 268.26 605.8 268.26"/><polygon class="cls-75" points="606.17 267.86 602.74 271.48 567.03 268.18 571.01 264.62 606.17 267.86"/><polygon class="cls-78" points="605.8 268.26 605.42 268.66 603.11 271.06 568.68 267.86 568.24 267.81 571.22 265.15 605.8 268.26"/><polygon class="cls-3" points="605.42 268.66 603.11 271.06 568.68 267.86 571.22 265.58 605.42 268.66"/><polygon class="cls-78" points="567.03 268.18 602.73 271.48 602.73 298.19 567.03 294.72 567.03 268.18"/><polygon class="cls-79" points="601.45 269.76 601.45 298.19 601.17 298.56 599.41 298.35 597.01 301.97 597.01 303.95 596.37 304.78 596.37 275.11 597.01 274.43 600.54 270.72 601.45 269.76"/><polygon class="cls-79" points="601.45 269.75 596.37 275.1 559.87 271.73 565.74 266.46 601.45 269.75"/><polygon class="cls-80" points="600.93 270.3 600.32 270.94 597.03 274.4 562.12 271.34 561.41 271.28 566.06 267.12 600.93 270.3"/><polygon class="cls-80" points="600.93 270.3 601.17 298.56 597.56 298.19 599.37 270.16 600.93 270.3"/><polygon class="cls-3" points="600.55 270.71 600.55 298.48 597.01 303.06 597.01 274.4 561.99 271.33 566.06 267.61 600.55 270.71"/><polygon class="cls-80" points="596.37 275.11 596.37 304.78 559.82 300.4 559.87 271.73 596.37 275.11"/><polygon class="cls-3" points="588.2 290.53 567.99 288.6 567.99 278.32 588.2 280.1 588.2 290.53"/><polygon class="cls-81" points="596.37 304.78 558.23 300.23 558.23 277.29 596.37 300.44 596.37 304.78"/><polygon class="cls-77" points="610.39 254.09 603.66 261.76 571.13 258.51 571.79 257.88 572.5 257.98 578.33 252.33 578.33 251.54 578.93 250.95 610.39 254.09"/><polygon class="cls-76" points="608.75 254.45 608.11 255.18 603.09 260.9 572.5 257.98 578.33 252.33 578.33 251.54 608.75 254.45"/><polygon class="cls-3" points="608.11 255.18 603.09 260.9 572.5 257.98 578.33 252.33 608.11 255.18"/><polygon class="cls-3" points="605.42 268.66 605.42 294.17 603.11 297.16 603.11 268.66 605.42 268.66"/><rect class="cls-75" x="616.43" y="251.87" width="0.58" height="26.1"/></g></svg>